<svg version="1.1" id="Layer_1" xmlns="http://www.w3.org/2000/svg" xmlns:xlink="http://www.w3.org/1999/xlink" x="0px" y="0px"
	 width="100%" viewBox="0 0 1024 592" enable-background="new 0 0 1024 592" xml:space="preserve">
<path fill="#000000" opacity="1.000000" stroke="none" 
	d="
M243.254669,337.230957 
	C235.617630,346.282532 228.200668,355.056885 220.747452,363.800385 
	C217.144653,368.026917 213.417770,372.036255 207.255859,372.301880 
	C196.246719,372.776459 189.310165,361.839966 194.391815,351.902374 
	C196.696259,347.395813 200.283813,343.843811 203.500839,340.041809 
	C217.269974,323.768982 231.089096,307.537689 245.011490,291.396027 
	C247.500916,288.509766 248.651108,285.994019 247.198151,282.026947 
	C244.904526,275.764496 245.159805,269.166504 247.462433,262.910492 
	C248.670593,259.628082 248.066879,257.363403 245.889084,254.815125 
	C235.935211,243.167755 226.120499,231.401321 216.278351,219.658737 
	C213.929840,216.856750 211.406876,214.180832 209.817734,210.810425 
	C207.060852,204.963364 208.128204,198.549728 212.613831,194.328354 
	C217.185669,190.025848 224.054901,189.442978 229.742447,192.845749 
	C232.073700,194.240509 233.863174,196.208435 235.577103,198.253098 
	C246.167831,210.887589 256.817383,223.474106 267.272583,236.219925 
	C269.597900,239.054749 271.855011,240.844757 275.671387,239.698608 
	C276.925446,239.321991 278.464508,238.914978 279.607025,239.303925 
	C287.451172,241.974396 291.412781,237.014740 295.670990,231.823776 
	C304.118652,221.525742 312.867249,211.474197 321.520721,201.345795 
	C323.249695,199.322098 325.003052,197.298309 326.928406,195.467194 
	C332.931549,189.757858 340.404327,189.401718 346.296814,194.424805 
	C351.996094,199.283157 353.221130,206.726028 348.294464,213.252609 
	C341.785095,221.875824 334.532776,229.939880 327.562683,238.213013 
	C322.736328,243.941696 317.875549,249.642105 312.971130,255.303986 
	C311.210968,257.335999 310.513306,259.193359 311.594055,262.033325 
	C314.289429,269.116028 314.183105,276.480835 311.672455,283.555023 
	C310.533142,286.765289 311.231964,288.792358 313.222229,291.152252 
	C328.146149,308.848083 343.000763,326.602417 357.845490,344.364838 
	C359.763397,346.659729 361.749176,348.957428 363.272064,351.511108 
	C367.033295,357.818146 365.645538,365.961792 360.360199,370.079224 
	C354.711212,374.479889 347.142517,374.142426 341.727509,368.725037 
	C337.736542,364.732330 334.230743,360.246826 330.593353,355.909943 
	C317.653931,340.482086 304.701599,325.064362 291.876740,309.541565 
	C289.422668,306.571259 286.974640,304.962311 282.940765,306.064819 
	C280.928650,306.614746 278.448395,306.697418 276.510773,306.030396 
	C271.574097,304.330994 268.889496,306.725128 266.025391,310.241425 
	C258.667511,319.274841 251.002228,328.057922 243.254669,337.230957 
M300.042908,285.459015 
	C304.634186,278.305084 304.869568,270.859192 301.767822,263.069855 
	C297.278015,251.794754 283.625824,245.580750 272.033783,249.660400 
	C259.766479,253.977707 252.683838,267.432098 256.412506,279.223236 
	C259.295074,288.338776 265.041077,294.692902 274.538879,296.568176 
	C285.027740,298.639099 293.436401,294.732635 300.042908,285.459015 
z"/>
<path fill="#000000" opacity="1.000000" stroke="none" 
	d="
M156.674637,409.309570 
	C175.486633,409.379456 194.049789,406.725159 212.238968,411.569153 
	C231.429230,416.679749 243.980621,433.139709 244.169632,453.157196 
	C244.355759,472.866760 232.134033,489.563141 213.433258,495.201599 
	C207.650330,496.945221 201.732529,497.947479 195.718338,497.916504 
	C183.394363,497.852997 171.072037,497.471710 158.748047,497.405273 
	C155.300903,497.386688 153.862930,496.046082 154.033554,492.669647 
	C155.362808,466.366364 154.416473,440.035065 154.989319,413.722321 
	C155.021973,412.221771 155.140472,410.709473 156.674637,409.309570 
M176.304001,435.608093 
	C176.238297,448.586609 176.277267,461.567047 176.042755,474.542511 
	C175.972931,478.406281 177.233459,479.985474 181.182434,479.801880 
	C186.827972,479.539429 192.514145,479.944794 198.140244,479.511017 
	C211.190018,478.504852 220.782288,469.260681 221.725800,457.203949 
	C222.959152,441.442932 216.270905,431.614563 202.009109,428.126617 
	C195.928604,426.639496 189.754929,427.300781 183.618820,427.208649 
	C176.388779,427.100067 176.387482,427.186829 176.304001,435.608093 
z"/>
<path fill="#000000" opacity="1.000000" stroke="none" 
	d="
M436.536987,451.885132 
	C446.527130,431.134674 465.140015,426.231964 489.365112,437.937836 
	C489.855255,432.416901 493.637878,432.491577 497.871460,432.577240 
	C510.244232,432.827789 510.360565,432.712311 510.169739,445.152374 
	C509.924652,461.132446 510.650787,477.126129 509.376129,493.093231 
	C507.805115,512.772217 497.862762,523.573853 478.186859,525.721069 
	C465.384705,527.118164 452.970886,525.079651 441.411530,518.912354 
	C438.122803,517.157715 436.958984,515.207031 439.285492,511.834869 
	C441.358521,508.830139 442.074524,504.483521 445.160034,502.713135 
	C448.593567,500.743011 451.226288,505.039276 454.495148,505.974335 
	C461.928436,508.100616 469.246368,510.052185 477.035156,507.995514 
	C484.987274,505.895630 488.581360,500.918823 488.186768,491.723877 
	C483.132660,493.981873 478.471222,496.839203 472.903381,497.254456 
	C445.451721,499.301788 428.757812,478.780792 436.536987,451.885132 
M462.931000,477.748840 
	C472.180389,482.377563 483.748199,479.633575 487.407867,471.942780 
	C491.015442,464.361420 488.600861,455.169342 481.981628,451.285675 
	C474.154816,446.693329 462.581085,448.668030 458.116730,455.357483 
	C453.249878,462.650055 454.946381,471.626740 462.931000,477.748840 
z"/>
<path fill="#000000" opacity="1.000000" stroke="none" 
	d="
M801.053589,482.046448 
	C801.993774,459.750763 801.799744,437.932312 801.765747,416.119263 
	C801.758606,411.542206 803.458435,409.725281 807.934082,409.986877 
	C811.254578,410.180908 814.593689,410.063904 817.924500,410.069336 
	C821.627319,410.075378 823.331909,411.741028 823.196899,415.611328 
	C822.976501,421.933807 823.060059,428.266998 823.022034,434.595703 
	C823.010376,436.540436 823.020264,438.485260 823.020264,441.433777 
	C832.485168,434.879700 841.949036,433.932312 851.854553,436.721497 
	C859.332642,438.827179 865.338013,443.079224 869.825806,449.464417 
	C879.039368,462.573425 877.959167,482.513733 867.352234,494.558411 
	C856.102173,507.333405 840.159607,509.229889 822.107300,499.702667 
	C821.331787,504.032837 818.382935,504.527802 814.554199,504.468170 
	C800.907043,504.255493 800.906372,504.380371 801.011719,490.533051 
	C801.031982,487.868256 801.038025,485.203339 801.053589,482.046448 
M839.351440,452.966766 
	C828.434814,453.250885 822.385864,459.272583 822.186707,470.054260 
	C821.998169,480.257874 827.581421,487.272552 836.406982,487.920532 
	C846.690063,488.675476 853.533386,483.138855 854.679138,473.137146 
	C855.948242,462.059082 850.652100,454.689117 839.351440,452.966766 
z"/>
<path fill="#000000" opacity="1.000000" stroke="none" 
	d="
M295.000061,471.142944 
	C287.604980,471.142059 280.709839,471.142059 273.285828,471.142059 
	C274.349091,476.973633 277.872498,479.459320 281.851868,481.076630 
	C289.583649,484.219116 297.297058,483.765594 304.209991,478.911926 
	C307.085968,476.892670 308.824188,477.013031 310.823120,479.689209 
	C311.913147,481.148560 313.285034,482.397614 314.531677,483.739746 
	C319.038300,488.591492 318.974274,489.562225 313.661652,493.316345 
	C295.310608,506.283813 261.223846,500.096863 253.103729,475.966553 
	C245.175858,452.407471 264.304871,427.267944 289.079254,429.328735 
	C307.009857,430.820221 318.728455,440.024597 322.615387,455.667114 
	C322.695587,455.989929 322.823944,456.301514 322.893494,456.626129 
	C325.572510,469.132690 323.945923,471.210114 311.488159,471.186951 
	C306.158783,471.177063 300.829407,471.158478 295.000061,471.142944 
M302.772278,455.358948 
	C300.368774,448.689240 295.055054,445.936707 288.528351,445.568298 
	C282.763947,445.242920 277.730164,447.270203 274.572479,452.531769 
	C272.348785,456.237030 273.061218,457.707397 277.268890,457.789764 
	C284.733643,457.935944 292.202118,457.934937 299.668701,457.908051 
	C300.991760,457.903290 302.910583,458.489655 302.772278,455.358948 
z"/>
<path fill="#000000" opacity="1.000000" stroke="none" 
	d="
M746.864197,504.940369 
	C739.881226,504.613831 733.455505,503.774261 728.032471,499.625824 
	C722.032532,495.035980 718.970337,489.004639 719.931396,481.381500 
	C720.887817,473.795288 725.108215,468.683380 732.223694,465.732391 
	C740.201599,462.423676 748.529968,463.033325 756.835754,462.894714 
	C759.120361,462.856598 762.601135,464.299591 763.385315,461.168884 
	C764.285828,457.573242 761.811035,454.807007 758.524597,453.329468 
	C750.449341,449.698944 742.387329,450.920197 734.960022,454.828979 
	C730.543884,457.153137 728.997559,455.894501 727.130981,452.010986 
	C721.935608,441.201782 721.817627,441.295135 733.176575,437.375977 
	C743.876953,433.684143 754.740784,433.420715 765.626648,436.113312 
	C776.868958,438.894073 784.614929,448.376373 785.029236,460.547546 
	C785.470825,473.520599 785.110962,486.519836 785.195312,499.507019 
	C785.217407,502.898010 783.800598,504.390900 780.402344,504.247833 
	C777.410095,504.121887 774.408325,504.176788 771.411621,504.216492 
	C767.903870,504.262939 764.329651,504.482605 764.783447,498.672363 
	C758.983704,502.671753 753.390076,504.561859 746.864197,504.940369 
M753.902283,489.794312 
	C760.615845,487.836975 763.757019,484.867401 763.854492,480.319275 
	C763.894531,478.450989 763.892822,476.390198 761.329651,476.299438 
	C756.219666,476.118622 751.067810,475.464478 746.007568,476.609100 
	C742.689941,477.359558 740.155212,479.197266 740.315979,483.041077 
	C740.469177,486.701813 742.833984,488.783264 746.160156,489.506775 
	C748.382874,489.990204 750.755981,489.781799 753.902283,489.794312 
z"/>
<path fill="#000000" opacity="1.000000" stroke="none" 
	d="
M775.285217,347.000000 
	C775.288513,353.996582 775.121277,360.499237 775.350647,366.987854 
	C775.529785,372.056549 772.335571,372.039978 768.785706,372.086304 
	C765.229797,372.132721 762.666443,371.637970 762.692200,367.032532 
	C762.796631,348.376282 762.691284,329.718719 762.623779,311.061768 
	C762.591980,302.277893 762.551453,302.279480 753.641052,302.278809 
	C748.976807,302.278442 744.307800,302.140106 739.649780,302.308411 
	C735.668823,302.452240 734.939392,300.229523 734.969299,296.939514 
	C734.998718,293.684937 735.170776,290.876709 739.565674,290.900238 
	C750.559570,290.959076 761.554138,290.886627 772.548401,290.877594 
	C784.375671,290.867859 796.205383,291.006439 808.028870,290.792175 
	C812.048462,290.719330 814.452942,292.199097 816.457581,295.608582 
	C822.534790,305.944794 828.865173,316.132599 835.146484,326.347809 
	C836.065674,327.842682 836.604492,329.775696 838.813965,330.284241 
	C841.063293,328.950806 841.874512,326.468781 843.156067,324.403442 
	C849.214539,314.639740 855.149719,304.799591 861.187134,295.022644 
	C863.524963,291.236694 869.338379,289.372955 873.305115,291.091339 
	C876.470032,292.462433 874.486938,294.369415 873.558716,295.923157 
	C867.921997,305.358246 862.847961,315.218628 856.359192,324.033936 
	C847.229431,336.437103 842.889954,349.682220 844.872253,365.014709 
	C845.358032,368.772156 844.630615,371.899323 839.506714,371.978455 
	C832.590820,372.085266 831.199097,371.521942 831.937927,364.542480 
	C833.489441,349.885895 829.694336,337.235291 820.835327,325.456024 
	C814.755676,317.372284 810.033386,308.267822 804.697815,299.623688 
	C804.525452,299.344452 804.281799,299.109253 803.716858,298.422760 
	C802.337891,302.374359 799.201294,302.355103 795.903687,302.279968 
	C790.742493,302.162292 785.569031,302.427734 780.414734,302.207092 
	C776.437683,302.036774 775.196167,303.705322 775.238647,307.520721 
	C775.383179,320.512390 775.288757,333.506683 775.285217,347.000000 
z"/>
<path fill="#000000" opacity="1.000000" stroke="none" 
	d="
M526.750244,445.021118 
	C526.972290,431.273773 525.267639,432.927673 538.549255,432.863190 
	C542.547607,432.843781 547.411438,431.522552 547.678894,438.486847 
	C552.877747,436.125458 557.472839,433.430481 562.847412,432.819855 
	C583.181946,430.509430 595.573669,440.414001 596.848694,461.052643 
	C597.606812,473.324799 597.252686,485.675293 596.489075,497.986267 
	C596.284668,501.282074 594.793457,502.318909 591.771606,502.233459 
	C587.945068,502.125214 584.110107,502.090332 580.285156,502.215515 
	C576.378601,502.343414 575.184448,500.762787 575.327820,496.790009 
	C575.723999,485.814178 575.788940,474.819275 575.672363,463.835236 
	C575.619629,458.859497 574.271973,454.074097 569.087830,451.872955 
	C563.457397,449.482361 557.980469,450.159912 553.060669,453.859467 
	C549.620178,456.446594 548.503662,460.284424 548.009094,464.354218 
	C546.739075,474.805878 547.398560,485.309265 547.327087,495.785675 
	C547.297241,500.174622 545.774963,501.853760 541.462402,501.457275 
	C538.820129,501.214325 536.138428,501.407715 533.474548,501.388916 
	C525.881958,501.335388 525.614258,501.276062 526.097839,493.447418 
	C527.084595,477.474792 526.427185,461.491150 526.750244,445.021118 
z"/>
<path fill="#000000" opacity="1.000000" stroke="none" 
	d="
M584.645386,324.442932 
	C583.183899,326.288086 581.936523,327.832642 580.771606,329.275177 
	C580.727051,330.952545 582.038513,331.252625 582.958801,331.854309 
	C590.858276,337.019257 593.385559,344.567383 592.180359,353.499390 
	C591.033081,362.001984 585.635498,366.986084 577.781006,369.726410 
	C573.652588,371.166718 569.416992,372.090820 565.082581,372.131897 
	C552.761841,372.248596 540.438477,372.092651 528.117920,372.217438 
	C524.344849,372.255646 522.731812,370.984680 522.746155,367.015167 
	C522.831055,343.537445 522.753967,320.059021 522.704895,296.580933 
	C522.699341,293.907654 522.869629,291.178253 526.343567,291.243347 
	C541.442322,291.526154 556.670837,289.171539 571.610596,292.774048 
	C586.918884,296.465424 592.692993,310.452850 584.645386,324.442932 
M541.750916,361.686462 
	C551.040344,361.326630 560.417358,362.732025 569.611816,360.588409 
	C576.329956,359.022125 579.813293,354.740295 579.685547,348.772705 
	C579.552673,342.559937 575.681335,338.444580 568.733765,337.225403 
	C559.310181,335.571716 549.806702,336.570679 540.338196,336.472656 
	C537.311646,336.441284 535.851868,338.118225 535.897156,341.223389 
	C535.974731,346.548187 536.003967,351.876495 535.896301,357.200165 
	C535.824951,360.726776 537.538818,361.995636 541.750916,361.686462 
M564.613464,302.527100 
	C556.289612,302.376160 547.965149,302.253937 539.642395,302.057495 
	C537.016235,301.995544 535.593628,302.809479 535.706970,305.764709 
	C535.917419,311.254364 535.879944,316.753174 535.991211,322.247253 
	C536.028198,324.074158 536.648315,325.678253 538.805481,325.640503 
	C548.106628,325.477753 557.512756,326.929352 566.677612,324.578857 
	C574.994934,322.445709 578.272339,313.815216 573.476196,307.438171 
	C571.465820,304.765198 568.492249,303.648804 564.613464,302.527100 
z"/>
<path fill="#000000" opacity="1.000000" stroke="none" 
	d="
M386.786530,204.140305 
	C383.101715,196.239456 379.185394,188.899780 374.486908,181.988190 
	C372.870972,179.611099 371.561768,177.119675 372.767975,174.059448 
	C374.865875,168.737122 381.202271,168.187607 385.210815,173.315125 
	C390.879578,180.566284 395.312500,188.632935 398.959686,197.048767 
	C418.506531,242.153244 421.145264,288.446869 408.466888,335.794525 
	C404.539520,350.461365 399.305603,364.675690 393.994476,378.869354 
	C393.355164,380.577850 392.610077,382.282440 391.656616,383.830231 
	C389.643250,387.098663 386.560822,388.361237 383.078217,386.785828 
	C379.650879,385.235413 378.275879,382.176971 379.517242,378.462860 
	C381.311523,373.094482 383.266022,367.778320 385.220551,362.465057 
	C392.534210,342.583527 399.090881,322.452240 401.019165,301.244568 
	C404.048767,267.923889 400.818909,235.399826 386.786530,204.140305 
z"/>
<path fill="#000000" opacity="1.000000" stroke="none" 
	d="
M159.379135,195.509537 
	C163.272461,187.913971 166.946152,180.615097 171.843979,174.045059 
	C175.331757,169.366470 180.063492,168.562546 183.248779,172.048477 
	C186.275055,175.360367 185.419006,178.704208 183.151566,182.051987 
	C175.637848,193.145737 169.647324,205.039429 165.423813,217.733688 
	C157.187180,242.489838 153.947662,267.910645 155.826859,293.980713 
	C157.778366,321.053894 166.267441,346.402252 175.917282,371.466248 
	C176.932419,374.102905 177.992767,376.755829 178.633423,379.494507 
	C179.463379,383.042328 177.907059,385.799652 174.614273,387.161346 
	C171.230576,388.560638 168.352539,387.356506 166.455811,384.292908 
	C165.412766,382.608154 164.641068,380.729523 163.931915,378.867889 
	C154.975586,355.356110 146.686279,331.661377 143.275986,306.552277 
	C140.953857,289.455109 141.031677,272.337891 142.942871,255.259567 
	C145.250549,234.638214 150.387527,214.717499 159.379135,195.509537 
z"/>
<path fill="#000000" opacity="1.000000" stroke="none" 
	d="
M329.637329,493.231689 
	C329.085388,487.630554 332.656097,483.772766 334.740936,479.391754 
	C335.669220,477.441162 337.639648,478.758606 339.127838,479.503540 
	C347.086273,483.487213 355.512665,484.855621 364.329132,483.904510 
	C367.064392,483.609436 370.086395,482.980804 370.402954,479.805237 
	C370.740662,476.417511 367.565430,475.596039 365.009399,474.986450 
	C360.646698,473.946075 356.194794,473.285889 351.805054,472.350281 
	C349.208862,471.796967 346.601440,471.189117 344.101013,470.314301 
	C336.835663,467.772308 331.649384,463.250793 330.805634,455.114014 
	C329.935364,446.721893 332.912292,439.752319 340.208252,435.581421 
	C355.391754,426.901428 370.913971,428.983551 386.336517,435.270081 
	C386.641327,435.394287 387.055237,435.536926 387.174835,435.787292 
	C389.777496,441.235626 384.508911,444.361786 383.272522,448.690277 
	C382.565399,451.165924 380.679413,451.225922 378.475677,450.091980 
	C372.726471,447.133698 366.567535,445.886932 360.117310,446.343323 
	C358.315796,446.470795 356.508759,446.889374 354.766571,447.390839 
	C352.718445,447.980438 351.160370,449.202667 351.161835,451.592438 
	C351.163300,453.990570 352.716125,455.269623 354.791656,455.751221 
	C359.649933,456.878479 364.540039,457.878326 369.438232,458.820709 
	C373.215668,459.547516 376.919312,460.481689 380.380219,462.182678 
	C391.606018,467.699921 394.226349,482.032745 385.698181,491.242462 
	C380.818817,496.511780 374.553619,499.158722 367.605377,499.865479 
	C354.503204,501.198242 341.665192,500.397614 329.637329,493.231689 
z"/>
<path fill="#000000" opacity="1.000000" stroke="none" 
	d="
M681.972168,485.061951 
	C691.947632,485.217957 701.438477,485.430115 710.930176,485.481567 
	C713.880432,485.497589 715.253967,486.668091 715.189270,489.624420 
	C714.828125,506.116669 717.035339,503.235321 702.404968,503.302124 
	C686.576660,503.374451 670.746704,503.025116 654.917786,503.051575 
	C650.710205,503.058624 648.808655,501.703857 649.039917,497.254272 
	C650.346313,472.116180 649.598328,446.949554 649.922974,421.796783 
	C650.021545,414.158447 650.217957,413.880829 657.792419,413.955780 
	C674.509155,414.121124 672.044128,412.731201 671.933533,427.983643 
	C671.815247,444.307312 671.441345,460.628967 671.229614,476.952179 
	C671.125671,484.970825 671.177490,484.971771 678.988403,485.041748 
	C679.821533,485.049194 680.654663,485.051453 681.972168,485.061951 
z"/>
<path fill="#000000" opacity="1.000000" stroke="none" 
	d="
M480.880066,302.204346 
	C491.420135,325.195526 501.790863,347.849426 512.142273,370.461121 
	C504.827759,374.368958 499.519989,372.632996 496.570038,365.880676 
	C490.612732,352.244843 490.612701,352.246765 475.781250,352.260559 
	C468.453888,352.267395 461.122620,352.407623 453.800964,352.204132 
	C450.456085,352.111176 448.534088,353.339417 447.350769,356.402191 
	C446.093231,359.657135 444.469025,362.768280 443.119995,365.990417 
	C440.705994,371.756195 435.803162,374.098724 430.078979,372.084473 
	C426.880768,370.959015 428.596069,368.904907 429.338715,367.242157 
	C434.429749,355.843811 439.573242,344.468750 444.740967,333.104889 
	C450.459991,320.528625 456.362793,308.033234 461.879211,295.369202 
	C463.482819,291.687836 466.038971,291.094482 469.398895,291.095795 
	C472.809235,291.097168 476.138184,290.958099 477.641571,295.038086 
	C478.502350,297.374207 479.677277,299.594604 480.880066,302.204346 
M476.190521,320.238007 
	C474.261871,315.884674 472.333221,311.531342 469.764862,305.734131 
	C464.260681,318.256653 459.333099,329.467377 454.049042,341.489044 
	C464.906677,341.571930 474.563049,342.162933 485.267242,341.146545 
	C482.121246,333.878082 479.317535,327.400421 476.190521,320.238007 
z"/>
<path fill="#000000" opacity="1.000000" stroke="none" 
	d="
M657.113037,337.000000 
	C657.115112,342.995972 657.099365,348.492096 657.124084,353.987976 
	C657.154236,360.707764 657.168884,360.715302 663.685059,360.718903 
	C674.010925,360.724579 684.340149,360.873322 694.660950,360.643494 
	C698.901794,360.549072 700.208923,362.257996 700.170410,366.235352 
	C700.134155,369.995422 699.253113,372.220612 694.883362,372.182220 
	C679.562378,372.047546 664.239502,372.077698 648.917664,372.135681 
	C645.292603,372.149384 643.875305,370.534729 643.879333,366.985413 
	C643.906250,343.335999 643.913086,319.686127 643.769958,296.037354 
	C643.739258,290.971802 646.916138,291.034912 650.427429,290.982819 
	C654.023193,290.929504 657.157837,291.079468 657.123779,296.029602 
	C657.030884,309.519104 657.105164,323.009796 657.113037,337.000000 
z"/>
<path fill="#000000" opacity="1.000000" stroke="none" 
	d="
M408.165344,500.206390 
	C403.835327,500.434967 400.712952,500.107758 401.077972,494.803558 
	C402.358429,476.194946 401.471069,457.549744 401.772949,438.922546 
	C401.889740,431.713867 401.842896,431.713165 409.008484,431.735992 
	C410.505981,431.740784 412.003510,431.747040 413.501007,431.749603 
	C423.287262,431.766418 423.409485,431.773285 422.852356,441.315277 
	C421.852509,458.440399 422.489441,475.580841 422.181000,492.711517 
	C422.046539,500.178528 422.078857,500.220642 414.627930,500.233276 
	C412.631287,500.236664 410.634552,500.217682 408.165344,500.206390 
z"/>
<path fill="#000000" opacity="1.000000" stroke="none" 
	d="
M621.939087,297.345093 
	C621.963440,320.259277 622.001038,342.712128 621.962402,365.164856 
	C621.958557,367.390137 622.799438,370.335022 620.219177,371.470428 
	C617.153503,372.819489 613.675537,372.628052 610.480713,371.533875 
	C608.564819,370.877716 608.796814,368.853607 608.794006,367.213409 
	C608.753174,343.762634 608.793823,320.311462 608.651794,296.861389 
	C608.627930,292.915436 609.860413,291.063080 614.005310,290.981079 
	C620.378845,290.855042 621.260559,291.342896 621.939087,297.345093 
z"/>
<path fill="#000000" opacity="1.000000" stroke="none" 
	d="
M713.814270,291.151245 
	C724.272339,290.690491 724.282166,290.690491 724.291199,300.410431 
	C724.311462,322.197693 724.205444,343.986084 724.425781,365.771271 
	C724.473877,370.529938 723.002380,372.369202 718.182068,372.156738 
	C712.055176,371.886688 711.652649,371.776062 711.641846,365.681580 
	C711.601013,342.584808 710.848389,319.488464 711.577332,296.391693 
	C711.636475,294.516632 710.822327,292.250031 713.814270,291.151245 
z"/>
<path fill="#000000" opacity="1.000000" stroke="none" 
	d="
M425.159668,413.633240 
	C421.787872,423.090607 413.257996,426.370087 405.216339,421.692444 
	C398.931488,418.036682 397.835022,409.096405 403.210693,404.217651 
	C407.795441,400.056732 413.309021,400.030884 418.643707,402.059906 
	C423.485321,403.901428 425.552338,408.008514 425.159668,413.633240 
z"/>
</svg>