<svg version="1.1" id="Layer_1" xmlns="http://www.w3.org/2000/svg" xmlns:xlink="http://www.w3.org/1999/xlink" x="0px" y="0px"
	 width="100%" height="100px" viewBox="0 0 629 353" enable-background="new 0 0 629 353" xml:space="preserve">
<path fill="#020202" opacity="1.000000" stroke="none" 
	d="
M363.000000,354.000000 
	C242.000031,354.000000 121.500061,354.000000 1.000065,354.000000 
	C1.000043,236.333389 1.000043,118.666779 1.000022,1.000128 
	C210.666565,1.000085 420.333130,1.000085 629.999756,1.000043 
	C629.999878,118.666534 629.999878,236.333069 629.999939,353.999817 
	C541.166687,354.000000 452.333344,354.000000 363.000000,354.000000 
M421.034973,292.808685 
	C425.688202,292.885132 430.341431,292.961578 435.923370,292.895752 
	C444.619629,292.953735 453.315887,293.011688 462.460327,293.578705 
	C467.502838,291.112579 464.256134,286.642181 464.657745,283.151245 
	C464.747589,282.370331 461.547852,280.458588 459.785675,280.353149 
	C453.643311,279.985657 447.450134,279.894440 441.309662,280.259583 
	C436.783264,280.528778 435.661896,278.911774 435.774811,274.580597 
	C436.091736,262.427704 436.021851,250.262436 435.921204,238.103561 
	C435.906891,236.378555 437.313507,232.960556 432.109131,233.931442 
	C428.738037,233.953476 425.366974,233.975510 421.242432,233.978134 
	C421.147003,235.983353 421.051605,237.988586 421.100952,240.922318 
	C420.963867,250.914886 420.826752,260.907471 419.969086,271.169647 
	C419.725494,277.653900 419.446167,284.137451 419.316559,290.623962 
	C419.307678,291.069366 420.417999,291.537140 421.000000,292.000000 
	C421.000000,292.000000 421.006256,291.991760 421.034973,292.808685 
M97.992432,213.032303 
	C97.992432,213.032303 97.917763,213.100006 97.868759,213.843201 
	C99.856636,214.291351 103.035606,215.698029 103.598068,214.999084 
	C105.007858,213.247208 106.317162,210.227951 105.750710,208.271927 
	C102.868896,198.320938 99.388397,188.542862 96.095787,178.711548 
	C94.876266,175.070190 93.597450,171.448700 92.216362,167.216400 
	C92.193138,166.807266 92.169907,166.398117 92.653793,165.418396 
	C91.921204,161.872772 91.188614,158.327164 90.353050,153.877945 
	C90.394920,146.658997 90.436790,139.440063 91.082222,131.866577 
	C91.447647,127.914017 91.813072,123.961464 92.193687,119.308380 
	C92.294296,118.615860 92.394913,117.923347 93.134926,116.954926 
	C93.650879,115.747704 94.395660,114.586182 94.647301,113.326164 
	C97.102524,101.032349 101.731758,89.641350 108.681778,79.210403 
	C110.771912,76.073410 112.385918,72.749542 108.514030,70.109497 
	C104.674599,67.491592 101.705719,70.046295 99.883011,73.216209 
	C96.335968,79.384956 92.649010,85.580849 90.092148,92.180840 
	C87.578575,98.669113 86.394440,105.672424 84.560905,113.088127 
	C84.456947,113.721207 84.352989,114.354286 83.659706,115.483284 
	C83.321724,118.139442 82.983742,120.795609 82.598122,124.239174 
	C82.471550,125.821983 82.344978,127.404800 81.688942,129.564377 
	C80.043488,139.079269 78.984596,148.583160 82.318077,158.724915 
	C82.382767,159.688736 82.447456,160.652573 82.095398,162.450607 
	C82.150375,163.936646 81.917427,165.502899 82.305550,166.896118 
	C85.626175,178.815796 88.884140,190.758698 92.562134,202.569672 
	C93.713676,206.267548 96.087578,209.584778 97.992432,213.032303 
M471.966766,290.713135 
	C477.441010,295.648651 483.554199,297.207153 490.679474,294.653381 
	C492.724915,293.920227 495.076080,293.691315 497.264282,293.781921 
	C501.153229,293.942993 505.029877,294.812164 508.900146,294.742645 
	C509.962402,294.723541 511.852325,292.443695 511.884888,291.163696 
	C512.125244,281.712616 512.408325,272.227722 511.858459,262.801270 
	C511.307770,253.360825 501.112274,245.639359 492.133667,247.905960 
	C489.412231,247.881302 486.690796,247.856659 483.480957,247.253204 
	C480.770020,247.771255 477.953308,247.980499 475.368225,248.865982 
	C467.970245,251.400009 467.660828,252.719910 471.366272,259.514038 
	C473.426483,263.291534 475.801270,263.017395 479.172729,261.391602 
	C485.913757,258.140991 492.332733,259.522949 494.616394,264.525604 
	C489.352264,265.080902 484.106750,265.353485 478.968079,266.243256 
	C471.582397,267.522125 465.950378,273.427460 466.200928,280.039581 
	C466.352203,284.032593 465.982941,289.089508 471.966766,290.713135 
M196.845047,279.630615 
	C193.406693,273.664001 193.073822,273.558929 187.105865,276.556915 
	C179.829651,280.212097 172.944260,278.060211 170.983871,271.013733 
	C180.669815,271.080139 190.355759,271.146545 200.409012,271.718323 
	C202.905548,272.086670 203.413147,271.135406 202.054443,268.196259 
	C202.101532,266.784637 202.148621,265.372986 202.744476,263.475525 
	C202.131287,260.791931 201.992645,257.877747 200.820602,255.465698 
	C196.374634,246.315842 188.514862,242.254120 178.661331,242.219101 
	C168.669601,242.183578 160.278946,245.982056 155.945221,255.385880 
	C147.865753,272.917725 158.058899,290.042694 177.238129,291.782562 
	C184.257004,292.419250 190.822220,290.906616 196.552078,286.744232 
	C199.931107,284.289581 199.809219,282.201660 196.848373,280.179810 
	C196.848373,280.179810 196.614120,280.329010 196.845047,279.630615 
M327.138885,270.785858 
	C327.348358,263.471252 327.683868,256.155975 327.644012,248.842697 
	C327.637360,247.615143 326.007843,245.352188 325.124695,245.350449 
	C320.791504,245.341904 315.829437,243.013519 312.806274,248.079712 
	C300.749695,241.565994 288.320435,244.626389 282.272186,250.874710 
	C275.489899,257.881348 273.738739,269.990753 279.116028,278.667816 
	C286.982971,291.362366 298.721619,291.754150 311.750854,287.037720 
	C311.966797,290.863708 310.262177,292.956146 307.370575,294.379425 
	C300.705261,297.660187 294.168640,296.151733 288.225922,292.937469 
	C282.707336,289.952576 281.848907,294.029327 279.817322,297.107086 
	C277.473175,300.658386 278.568390,303.182129 282.018646,304.780426 
	C292.728455,309.741608 303.752319,310.775879 314.973938,306.643951 
	C321.374451,304.287262 328.271118,293.249695 326.243256,287.075317 
	C326.348907,281.801147 326.454559,276.527008 327.138885,270.785858 
M120.914154,229.855927 
	C112.083748,229.715256 103.252945,229.594452 94.423187,229.420853 
	C92.011589,229.373428 90.211052,229.650803 90.194763,232.807953 
	C90.105377,250.139130 89.840279,267.469788 89.862915,284.800293 
	C89.864471,285.990967 91.696190,288.190430 92.712875,288.211884 
	C102.702072,288.422821 112.761292,288.956696 122.678329,288.054565 
	C136.001373,286.842529 145.502518,278.001312 148.422363,265.772308 
	C151.258865,253.892349 146.911392,242.732071 135.581696,235.284042 
	C131.555817,232.637482 126.416275,231.684998 120.914154,229.855927 
M521.849976,288.936066 
	C521.319397,292.601196 522.940613,294.405945 526.587341,293.961029 
	C529.969238,293.548462 533.309814,292.797058 538.124268,291.933838 
	C547.145386,296.663330 556.266907,296.082550 563.815613,289.354034 
	C570.849365,283.084503 573.992065,271.659760 570.166382,263.315155 
	C563.077515,247.853088 550.928894,245.690674 535.795593,252.185822 
	C535.795593,247.230682 535.780212,243.106506 535.799011,238.982483 
	C535.831726,231.807266 535.840576,231.807343 528.467224,231.764359 
	C528.300720,231.763397 528.131226,231.781296 527.968201,231.756638 
	C524.173401,231.182816 522.717529,232.499207 522.698425,236.626083 
	C522.619019,253.770172 522.173950,270.912537 521.849976,288.936066 
M230.435837,196.474380 
	C229.124664,193.517899 228.367538,190.115707 226.408493,187.680405 
	C216.815521,175.755463 206.971497,164.029251 197.048569,152.375519 
	C194.867584,149.814102 194.338348,147.452530 195.057907,144.198593 
	C195.719177,141.208267 196.156693,137.823517 195.410583,134.944855 
	C194.182495,130.206696 195.152298,126.812164 198.466782,123.249657 
	C205.490356,115.700493 212.214233,107.860725 218.817047,99.936844 
	C222.122589,95.969925 221.939377,90.372452 219.009628,87.051949 
	C215.809570,83.425079 211.108505,82.704460 206.830383,85.492500 
	C205.054871,86.649597 203.499771,88.253174 202.115280,89.883675 
	C195.328476,97.876526 188.662369,105.971786 181.891495,113.978310 
	C178.880936,117.538284 168.318832,117.737251 165.340256,114.214867 
	C160.184097,108.117279 155.263687,101.820244 150.102615,95.726944 
	C147.101242,92.183418 144.120834,88.522499 140.598618,85.543938 
	C135.748413,81.442360 129.051636,83.377502 126.539360,89.132210 
	C124.583832,93.611633 126.465782,97.299461 129.219711,100.596214 
	C136.152740,108.895836 143.191086,117.108437 150.261017,125.292168 
	C152.132950,127.459007 152.662903,129.347351 151.895676,132.430756 
	C150.963745,136.176147 150.931580,140.469711 151.788467,144.235214 
	C152.496841,147.348038 151.821030,149.167404 149.952606,151.316605 
	C142.095825,160.353973 134.326904,169.468124 126.568985,178.590866 
	C123.338295,182.389923 119.956917,186.100464 117.113823,190.178741 
	C114.056190,194.564758 115.013611,200.385376 118.708664,203.257385 
	C122.629730,206.305115 128.073975,205.872559 131.722153,201.685364 
	C142.102890,189.770935 152.438263,177.810654 162.507782,165.633789 
	C168.459000,158.437103 177.851868,158.397446 183.686966,165.611740 
	C193.614639,177.885864 203.637314,190.099579 214.121338,201.893051 
	C216.152985,204.178452 220.555862,205.550735 223.723984,205.329117 
	C227.700806,205.050949 230.300491,201.713089 230.435837,196.474380 
M352.258148,265.943726 
	C354.585876,259.526886 358.489441,256.763794 363.990509,257.639038 
	C368.849701,258.412170 371.331055,262.153931 371.318817,269.019867 
	C371.309021,274.508911 371.104126,279.997406 371.006104,285.486542 
	C370.888702,292.064056 370.898041,292.064697 377.608154,292.135986 
	C378.606354,292.146606 379.844147,292.529175 380.553741,292.080139 
	C382.107727,291.096771 384.541229,289.744659 384.602844,288.447510 
	C384.997131,280.147888 385.279907,271.795135 384.760254,263.512543 
	C384.165558,254.033951 379.649933,249.161285 371.579529,246.922272 
	C364.989868,245.094086 359.136292,246.813293 352.715424,250.147339 
	C352.471222,249.666260 352.253113,248.617691 351.851715,248.542084 
	C348.111145,247.837387 344.317719,246.865723 340.592590,247.048691 
	C339.761749,247.089508 338.589447,251.340912 338.515564,253.683426 
	C338.206299,263.492065 338.223877,273.311829 338.181671,283.127747 
	C338.142334,292.277069 336.831787,291.299347 346.318909,291.475403 
	C346.651581,291.481598 346.987640,291.446960 347.316681,291.482178 
	C350.819183,291.857422 351.958923,290.234741 351.903046,286.817169 
	C351.794342,280.167114 352.043823,273.511200 352.258148,265.943726 
M255.221573,193.985474 
	C257.587646,184.818497 260.705414,175.770828 262.182495,166.462769 
	C267.121277,135.340546 263.543304,105.424873 247.648087,77.637436 
	C246.420013,75.490585 245.074051,73.133957 243.151596,71.754738 
	C241.768723,70.762619 238.913803,70.496552 237.506836,71.297188 
	C236.444565,71.901680 236.364929,74.707726 236.374054,76.531273 
	C236.379044,77.527206 237.423370,78.555908 238.091187,79.504936 
	C249.908508,96.298691 253.988632,115.525055 255.496552,135.492493 
	C257.389526,160.559113 250.257797,183.901596 241.263947,206.810272 
	C239.971802,210.101547 238.803619,213.036697 242.924927,214.661484 
	C246.850037,216.208893 248.290710,212.978226 249.385849,210.201630 
	C251.395782,205.105637 253.100723,199.889359 255.221573,193.985474 
M356.455109,205.366455 
	C361.258179,204.987137 366.120758,204.956039 370.850647,204.148254 
	C378.249634,202.884644 383.010406,197.351440 381.895294,190.012955 
	C381.188110,185.358795 378.094757,181.067215 376.071564,176.613007 
	C375.123901,176.445251 375.402557,175.848083 375.780884,175.322678 
	C383.298035,164.883377 380.049744,154.919205 367.362549,152.723953 
	C358.124420,151.125488 348.490692,151.688843 339.032654,151.672226 
	C338.048615,151.670502 336.223907,154.265732 336.201965,155.677979 
	C335.966370,170.831406 336.064117,185.989624 335.947571,201.145584 
	C335.922119,204.457794 337.321228,205.501572 340.480255,205.391098 
	C345.470581,205.216568 350.471924,205.357681 356.455109,205.366455 
M566.696472,160.432938 
	C568.193848,157.838608 569.691223,155.244278 571.308777,152.441711 
	C566.382568,150.758499 563.369263,151.775604 561.268860,155.636612 
	C559.204163,159.432220 556.992859,163.151474 554.747925,166.844650 
	C552.405334,170.698364 549.945862,174.481003 547.059753,179.051346 
	C545.370056,176.432739 544.376770,174.936569 543.426697,173.413406 
	C539.645874,167.351685 536.006958,161.195114 532.020752,155.272018 
	C530.950623,153.681885 528.857178,151.773163 527.200867,151.741943 
	C512.050537,151.456390 496.891846,151.470383 481.740112,151.697830 
	C480.549225,151.715714 478.480225,153.996643 478.479126,155.227264 
	C478.478027,156.430389 480.463593,158.442413 481.821899,158.675995 
	C484.896729,159.204788 488.136383,159.048096 491.282928,158.816208 
	C495.017395,158.540970 496.171356,160.018555 496.110809,163.703247 
	C495.911102,175.857880 496.061829,188.017853 495.971924,200.175003 
	C495.948517,203.335098 496.165833,205.763550 500.349823,205.707916 
	C504.493042,205.652817 504.202301,202.970535 504.203583,200.239716 
	C504.209229,188.082001 504.351166,175.922394 504.164673,163.767731 
	C504.107483,160.042023 505.366180,158.761139 509.024963,158.818634 
	C514.059875,158.897766 519.101868,158.523834 525.252075,158.304352 
	C527.837402,162.644562 530.618286,168.584900 534.551453,173.626221 
	C540.890869,181.751846 544.429626,190.368347 542.939819,200.786850 
	C542.569519,203.376495 542.824829,205.861862 546.587158,205.891983 
	C550.200439,205.920883 551.446716,204.039474 550.968201,200.851334 
	C549.381165,190.277969 553.044373,181.380783 559.165405,173.037369 
	C561.904419,169.303818 563.940063,165.054199 566.696472,160.432938 
M224.409302,261.464752 
	C223.146286,260.193115 221.883286,258.921478 220.620285,257.649811 
	C222.051086,256.691132 223.508575,254.886383 224.907761,254.930511 
	C229.318771,255.069656 233.922897,255.254669 238.052612,256.625763 
	C243.570450,258.457733 243.198135,253.863968 244.712692,251.460205 
	C246.653519,248.379868 244.293686,247.468140 241.859772,246.679016 
	C234.400757,244.260574 226.817551,243.695129 219.192673,245.499374 
	C212.159454,247.163605 207.114120,253.133972 207.246048,259.121643 
	C207.373230,264.893799 211.830185,269.625153 219.079086,271.444214 
	C222.138855,272.212006 225.415039,272.296875 228.333557,273.386627 
	C230.361618,274.143921 231.947357,276.085754 233.730698,277.498383 
	C231.831985,278.553589 229.836899,280.634583 228.053040,280.466980 
	C223.175064,280.008789 218.250809,279.008545 213.600800,277.456299 
	C209.162491,275.974731 209.034058,279.476074 207.669662,281.612000 
	C206.486404,283.464417 205.151932,285.639282 208.336044,286.895599 
	C219.234299,291.195526 230.195633,292.951569 241.072144,286.880066 
	C245.596786,284.354309 247.660889,280.194916 247.072571,275.160919 
	C246.493042,270.202118 243.849884,266.400787 238.756531,264.998688 
	C234.280396,263.766541 229.733963,262.789764 224.409302,261.464752 
M308.766113,160.526016 
	C307.749664,158.622284 307.038757,156.439957 305.629578,154.894257 
	C304.257812,153.389603 302.095276,151.533463 300.417969,151.660110 
	C298.466949,151.807434 295.771729,153.519913 294.940125,155.280746 
	C287.720184,170.568024 280.810791,186.003006 273.955688,201.459106 
	C273.531433,202.415619 274.193939,204.944214 274.606903,205.005142 
	C277.304230,205.403046 280.368988,206.215729 281.848114,202.622665 
	C282.795074,200.322311 284.047211,198.119858 284.741791,195.750198 
	C285.674896,192.566849 287.712311,191.790894 290.738129,191.857803 
	C297.220215,192.001114 303.712616,192.073410 310.190338,191.859314 
	C313.599335,191.746643 315.484619,193.126648 316.506012,196.205688 
	C317.028229,197.779785 317.728973,199.294998 318.356628,200.833725 
	C320.398346,205.839172 322.368408,206.545898 328.097382,203.778641 
	C321.761475,189.606812 315.413208,175.407349 308.766113,160.526016 
M417.150238,199.283417 
	C416.449554,203.969635 418.203674,205.790665 423.162689,205.589844 
	C431.970856,205.233139 440.804688,205.489288 449.627563,205.529755 
	C452.230255,205.541687 454.180298,205.118973 454.256439,201.801178 
	C454.333496,198.442856 452.407471,197.990906 449.784912,198.000824 
	C443.459076,198.024719 437.120972,197.748047 430.811249,198.062714 
	C426.508057,198.277313 424.957947,197.008087 425.071350,192.507111 
	C425.368896,180.694687 425.180603,168.870361 425.218475,157.050873 
	C425.227905,154.105453 425.492371,151.390076 421.033722,151.466248 
	C416.797211,151.538635 417.202515,154.203247 417.198334,156.882523 
	C417.176697,170.699753 417.165131,184.516998 417.150238,199.283417 
M255.015579,273.558624 
	C254.949615,277.540863 255.077637,281.538483 254.762863,285.500946 
	C254.451813,289.416443 255.890350,291.178467 259.830414,290.600372 
	C263.075958,290.124146 267.868225,292.797150 267.811920,285.951447 
	C267.713654,274.006897 268.014191,262.056305 268.326508,250.112915 
	C268.413666,246.779922 267.502716,245.028214 263.892853,245.365280 
	C262.413513,245.503403 260.892273,245.497604 259.417908,245.322754 
	C256.005981,244.918137 255.180283,246.582382 255.211319,249.682770 
	C255.287704,257.314484 255.102829,264.948822 255.015579,273.558624 
M401.478271,194.422028 
	C401.491333,181.624847 401.465332,168.827423 401.546783,156.030670 
	C401.565613,153.067352 400.886566,151.348434 397.386871,151.432098 
	C394.195374,151.508438 393.462646,153.048553 393.467346,155.809204 
	C393.492981,170.933044 393.474762,186.057175 393.398315,201.180832 
	C393.384003,204.008423 394.248169,205.470383 397.382751,205.494492 
	C400.419952,205.517838 401.641052,204.332748 401.486420,201.371460 
	C401.382599,199.382706 401.473663,197.383804 401.478271,194.422028 
M470.474640,166.510162 
	C470.480682,163.185501 470.375702,159.855881 470.523987,156.537567 
	C470.672577,153.212296 469.968048,151.206497 465.934052,151.264404 
	C461.730927,151.324753 462.075104,153.997894 462.070740,156.677780 
	C462.046906,171.306259 462.052612,185.934799 462.019989,200.563263 
	C462.013702,203.376572 461.940033,205.844376 466.020325,205.863968 
	C470.147156,205.883789 470.503601,203.624603 470.480896,200.420914 
	C470.403198,189.450134 470.465149,178.478378 470.474640,166.510162 
M255.249008,227.704056 
	C252.823975,231.302139 253.094925,235.243423 256.520844,237.296844 
	C259.058838,238.818069 263.111267,239.106079 266.057434,238.321899 
	C269.649475,237.365845 270.397644,233.592575 269.708466,230.072189 
	C268.597961,224.399826 261.634399,222.983109 255.249008,227.704056 
z"/>
<path fill="#EDEDED" opacity="1.000000" stroke="none" 
	d="
M121.349632,229.907547 
	C126.416275,231.684998 131.555817,232.637482 135.581696,235.284042 
	C146.911392,242.732071 151.258865,253.892349 148.422363,265.772308 
	C145.502518,278.001312 136.001373,286.842529 122.678329,288.054565 
	C112.761292,288.956696 102.702072,288.422821 92.712875,288.211884 
	C91.696190,288.190430 89.864471,285.990967 89.862915,284.800293 
	C89.840279,267.469788 90.105377,250.139130 90.194763,232.807953 
	C90.211052,229.650803 92.011589,229.373428 94.423187,229.420853 
	C103.252945,229.594452 112.083748,229.715256 121.349632,229.907547 
M134.142014,264.341278 
	C137.155685,251.388519 129.802780,241.730835 116.600021,241.330185 
	C114.103455,241.254425 111.580307,241.486984 109.111046,241.208405 
	C105.077286,240.753311 103.382317,242.078506 103.579361,246.381378 
	C103.830292,251.861069 103.461639,257.368073 103.392487,262.863708 
	C103.195160,278.544830 103.201614,278.544922 119.108093,277.085266 
	C126.905540,276.369720 131.514023,272.634491 134.142014,264.341278 
z"/>
<path fill="#EBEBEB" opacity="1.000000" stroke="none" 
	d="
M521.856506,288.495789 
	C522.173950,270.912537 522.619019,253.770172 522.698425,236.626083 
	C522.717529,232.499207 524.173401,231.182816 527.968201,231.756638 
	C528.131226,231.781296 528.300720,231.763397 528.467224,231.764359 
	C535.840576,231.807343 535.831726,231.807266 535.799011,238.982483 
	C535.780212,243.106506 535.795593,247.230682 535.795593,252.185822 
	C550.928894,245.690674 563.077515,247.853088 570.166382,263.315155 
	C573.992065,271.659760 570.849365,283.084503 563.815613,289.354034 
	C556.266907,296.082550 547.145386,296.663330 538.124268,291.933838 
	C533.309814,292.797058 529.969238,293.548462 526.587341,293.961029 
	C522.940613,294.405945 521.319397,292.601196 521.856506,288.495789 
M557.147400,266.698120 
	C554.463684,260.685608 550.102112,258.330536 544.078186,259.641296 
	C539.044067,260.736694 535.319031,265.665222 535.176331,271.419159 
	C535.026794,277.448944 538.576355,282.383820 543.976501,283.653809 
	C553.440308,285.879486 559.476562,278.571411 557.147400,266.698120 
z"/>
<path fill="#B7B7B7" opacity="1.000000" stroke="none" 
	d="
M230.429611,196.859436 
	C230.300491,201.713089 227.700806,205.050949 223.723984,205.329117 
	C220.555862,205.550735 216.152985,204.178452 214.121338,201.893051 
	C203.637314,190.099579 193.614639,177.885864 183.686966,165.611740 
	C177.851868,158.397446 168.459000,158.437103 162.507782,165.633789 
	C152.438263,177.810654 142.102890,189.770935 131.722153,201.685364 
	C128.073975,205.872559 122.629730,206.305115 118.708664,203.257385 
	C115.013611,200.385376 114.056190,194.564758 117.113823,190.178741 
	C119.956917,186.100464 123.338295,182.389923 126.568985,178.590866 
	C134.326904,169.468124 142.095825,160.353973 149.952606,151.316605 
	C151.821030,149.167404 152.496841,147.348038 151.788467,144.235214 
	C150.931580,140.469711 150.963745,136.176147 151.895676,132.430756 
	C152.662903,129.347351 152.132950,127.459007 150.261017,125.292168 
	C143.191086,117.108437 136.152740,108.895836 129.219711,100.596214 
	C126.465782,97.299461 124.583832,93.611633 126.539360,89.132210 
	C129.051636,83.377502 135.748413,81.442360 140.598618,85.543938 
	C144.120834,88.522499 147.101242,92.183418 150.102615,95.726944 
	C155.263687,101.820244 160.184097,108.117279 165.340256,114.214867 
	C168.318832,117.737251 178.880936,117.538284 181.891495,113.978310 
	C188.662369,105.971786 195.328476,97.876526 202.115280,89.883675 
	C203.499771,88.253174 205.054871,86.649597 206.830383,85.492500 
	C211.108505,82.704460 215.809570,83.425079 219.009628,87.051949 
	C221.939377,90.372452 222.122589,95.969925 218.817047,99.936844 
	C212.214233,107.860725 205.490356,115.700493 198.466782,123.249657 
	C195.152298,126.812164 194.182495,130.206696 195.410583,134.944855 
	C196.156693,137.823517 195.719177,141.208267 195.057907,144.198593 
	C194.338348,147.452530 194.867584,149.814102 197.048569,152.375519 
	C206.971497,164.029251 216.815521,175.755463 226.408493,187.680405 
	C228.367538,190.115707 229.124664,193.517899 230.429611,196.859436 
M190.888779,140.249069 
	C190.410843,148.660583 185.069794,153.431671 178.008774,156.808563 
	C179.919144,158.416458 181.777939,159.561661 183.094193,161.155045 
	C193.666748,173.953537 204.131348,186.841156 214.641983,199.690872 
	C217.711945,203.444046 222.648331,204.525192 225.614532,202.142166 
	C228.748947,199.623993 229.080460,194.283722 226.054840,190.642578 
	C215.446426,177.875992 204.688690,165.232864 194.161697,152.400085 
	C192.955734,150.929962 192.326187,148.558472 192.333069,146.608093 
	C192.349045,142.070877 194.202835,137.137207 192.950775,133.095642 
	C191.199936,127.444069 194.228790,124.787056 197.117523,121.472527 
	C203.873337,113.720932 210.783997,106.092880 217.225128,98.087471 
	C218.622742,96.350433 219.178833,93.001106 218.578583,90.819107 
	C217.754349,87.822876 214.951492,86.867531 211.464294,86.765228 
	C206.083466,86.607361 203.925568,90.421806 201.223190,93.607224 
	C195.756790,100.050774 190.577179,106.737274 185.125610,113.193832 
	C181.417404,117.585648 171.165283,119.920639 166.081680,117.665985 
	C165.078003,117.220840 164.216003,116.288864 163.489273,115.414627 
	C159.558533,110.686058 155.782593,105.826210 151.775345,101.164597 
	C147.883606,96.637383 144.070435,91.961388 139.615280,88.041061 
	C137.911926,86.542191 134.095154,85.944489 132.035858,86.815102 
	C130.321350,87.539963 128.789764,91.085533 128.949432,93.251060 
	C129.149200,95.960381 130.693146,98.919159 132.476196,101.100533 
	C138.889679,108.946785 145.735565,116.438675 152.198944,124.245865 
	C153.426987,125.729233 154.176971,128.021179 154.244766,129.971451 
	C154.417694,134.945038 154.359055,139.965714 153.838165,144.909073 
	C153.547226,147.670151 152.826569,150.872528 151.139267,152.919708 
	C141.310303,164.844879 131.126480,176.477234 121.085945,188.228516 
	C116.920586,193.103592 116.631470,199.008743 120.341759,202.003693 
	C123.651314,204.675171 127.787926,202.794846 132.210861,197.072479 
	C135.253952,193.135330 138.711060,189.519836 141.947418,185.730057 
	C150.008286,176.290741 158.048767,166.833969 166.431793,156.991653 
	C164.755722,155.506683 163.322876,154.201874 161.852539,152.940796 
	C156.475815,148.329239 154.562271,142.468369 155.519104,135.551773 
	C156.590515,127.806862 161.167358,123.036819 168.370148,120.622192 
	C174.207565,118.665283 182.220993,121.271858 184.333328,125.876617 
	C183.200653,125.179787 182.119919,124.374489 180.927032,123.803444 
	C172.139618,119.596893 162.568771,123.026733 158.797546,131.691269 
	C154.920792,140.598236 159.025833,150.641113 167.889236,153.933945 
	C176.399155,157.095474 185.869995,152.159241 188.907227,143.020203 
	C189.310806,141.805847 189.942474,140.667297 190.888779,140.249069 
z"/>
<path fill="#F1F1F1" opacity="1.000000" stroke="none" 
	d="
M326.560211,271.252838 
	C326.454559,276.527008 326.348907,281.801147 325.948303,287.763489 
	C325.115662,290.196075 324.644348,291.964233 324.028320,293.680511 
	C321.883484,299.656036 318.078217,304.185669 311.827209,305.872314 
	C303.599640,308.092255 295.293274,307.701324 287.210297,305.045929 
	C279.102386,302.382355 278.655121,300.011261 284.981201,293.588318 
	C291.339233,296.947601 298.270569,299.058746 305.445160,296.873352 
	C308.261658,296.015472 310.875488,293.430786 312.759186,290.996185 
	C313.780548,289.676147 313.072601,287.018097 313.144775,284.963623 
	C311.483124,285.394714 309.744537,285.639069 308.172058,286.286682 
	C296.065216,291.272888 282.616455,285.606140 278.729034,273.812317 
	C274.630280,261.377228 281.514069,249.548767 294.735138,246.500580 
	C301.685730,244.898071 307.827362,247.216232 313.456757,250.973145 
	C313.892090,250.671692 314.327423,250.537842 314.399872,250.295517 
	C316.083191,244.663467 320.667145,247.331284 324.017242,247.330750 
	C324.727722,247.330627 325.931885,250.903275 326.057861,252.883942 
	C326.446350,258.992859 326.423370,265.127930 326.560211,271.252838 
M299.936127,256.077209 
	C299.298798,256.256561 298.648804,256.400269 298.026062,256.620758 
	C291.882385,258.795929 289.398438,262.958008 290.442413,269.301392 
	C291.295227,274.483215 295.630035,278.014099 301.411865,278.236511 
	C307.706421,278.478607 312.364655,275.124725 313.579224,269.476074 
	C315.278076,261.575378 310.526855,256.573944 299.936127,256.077209 
z"/>
<path fill="#E7E7E7" opacity="1.000000" stroke="none" 
	d="
M352.201538,266.400726 
	C352.043823,273.511200 351.794342,280.167114 351.903046,286.817169 
	C351.958923,290.234741 350.819183,291.857422 347.316681,291.482178 
	C346.987640,291.446960 346.651581,291.481598 346.318909,291.475403 
	C336.831787,291.299347 338.142334,292.277069 338.181671,283.127747 
	C338.223877,273.311829 338.206299,263.492065 338.515564,253.683426 
	C338.589447,251.340912 339.761749,247.089508 340.592590,247.048691 
	C344.317719,246.865723 348.111145,247.837387 351.851715,248.542084 
	C352.253113,248.617691 352.471222,249.666260 352.715424,250.147339 
	C359.136292,246.813293 364.989868,245.094086 371.579529,246.922272 
	C379.649933,249.161285 384.165558,254.033951 384.760254,263.512543 
	C385.279907,271.795135 384.997131,280.147888 384.602844,288.447510 
	C384.541229,289.744659 382.107727,291.096771 380.553741,292.080139 
	C379.844147,292.529175 378.606354,292.146606 377.608154,292.135986 
	C370.898041,292.064697 370.888702,292.064056 371.006104,285.486542 
	C371.104126,279.997406 371.309021,274.508911 371.318817,269.019867 
	C371.331055,262.153931 368.849701,258.412170 363.990509,257.639038 
	C358.489441,256.763794 354.585876,259.526886 352.201538,266.400726 
z"/>
<path fill="#E2E2E2" opacity="1.000000" stroke="none" 
	d="
M255.077179,194.354340 
	C253.100723,199.889359 251.395782,205.105637 249.385849,210.201630 
	C248.290710,212.978226 246.850037,216.208893 242.924927,214.661484 
	C238.803619,213.036697 239.971802,210.101547 241.263947,206.810272 
	C250.257797,183.901596 257.389526,160.559113 255.496552,135.492493 
	C253.988632,115.525055 249.908508,96.298691 238.091187,79.504936 
	C237.423370,78.555908 236.379044,77.527206 236.374054,76.531273 
	C236.364929,74.707726 236.444565,71.901680 237.506836,71.297188 
	C238.913803,70.496552 241.768723,70.762619 243.151596,71.754738 
	C245.074051,73.133957 246.420013,75.490585 247.648087,77.637436 
	C263.543304,105.424873 267.121277,135.340546 262.182495,166.462769 
	C260.705414,175.770828 257.587646,184.818497 255.077179,194.354340 
z"/>
<path fill="#E0E0E0" opacity="1.000000" stroke="none" 
	d="
M355.961853,205.365814 
	C350.471924,205.357681 345.470581,205.216568 340.480255,205.391098 
	C337.321228,205.501572 335.922119,204.457794 335.947571,201.145584 
	C336.064117,185.989624 335.966370,170.831406 336.201965,155.677979 
	C336.223907,154.265732 338.048615,151.670502 339.032654,151.672226 
	C348.490692,151.688843 358.124420,151.125488 367.362549,152.723953 
	C380.049744,154.919205 383.298035,164.883377 375.780884,175.322678 
	C375.402557,175.848083 375.123901,176.445251 376.071564,176.613007 
	C378.094757,181.067215 381.188110,185.358795 381.895294,190.012955 
	C383.010406,197.351440 378.249634,202.884644 370.850647,204.148254 
	C366.120758,204.956039 361.258179,204.987137 355.961853,205.365814 
M344.208374,186.757034 
	C344.213196,189.579636 344.005707,192.426666 344.326324,195.212921 
	C344.456421,196.343643 345.728882,198.252045 346.494720,198.258560 
	C353.449493,198.317688 360.457153,198.470093 367.344452,197.680328 
	C371.195984,197.238678 374.342468,194.712799 374.315704,189.918671 
	C374.291016,185.497635 371.761688,183.253845 367.906586,182.193008 
	C365.847382,181.626358 363.683868,181.253662 361.552948,181.171936 
	C357.408081,181.012939 353.240356,181.320435 349.105957,181.058136 
	C345.440063,180.825546 343.769775,182.117416 344.208374,186.757034 
M344.238373,163.710464 
	C344.245605,166.368347 343.965302,169.073395 344.390167,171.662750 
	C344.581787,172.830536 346.149292,174.632751 347.142731,174.666428 
	C352.774292,174.857315 358.456238,174.948898 364.051300,174.383728 
	C368.458221,173.938583 371.393127,171.049866 371.331726,166.349380 
	C371.274353,161.957840 368.697540,159.101746 364.338287,158.639816 
	C359.239166,158.099518 354.071899,158.234070 348.955505,157.815369 
	C345.082031,157.498367 343.841614,159.261108 344.238373,163.710464 
z"/>
<path fill="#CECECE" opacity="1.000000" stroke="none" 
	d="
M566.495728,160.735855 
	C563.940063,165.054199 561.904419,169.303818 559.165405,173.037369 
	C553.044373,181.380783 549.381165,190.277969 550.968201,200.851334 
	C551.446716,204.039474 550.200439,205.920883 546.587158,205.891983 
	C542.824829,205.861862 542.569519,203.376495 542.939819,200.786850 
	C544.429626,190.368347 540.890869,181.751846 534.551453,173.626221 
	C530.618286,168.584900 527.837402,162.644562 525.252075,158.304352 
	C519.101868,158.523834 514.059875,158.897766 509.024963,158.818634 
	C505.366180,158.761139 504.107483,160.042023 504.164673,163.767731 
	C504.351166,175.922394 504.209229,188.082001 504.203583,200.239716 
	C504.202301,202.970535 504.493042,205.652817 500.349823,205.707916 
	C496.165833,205.763550 495.948517,203.335098 495.971924,200.175003 
	C496.061829,188.017853 495.911102,175.857880 496.110809,163.703247 
	C496.171356,160.018555 495.017395,158.540970 491.282928,158.816208 
	C488.136383,159.048096 484.896729,159.204788 481.821899,158.675995 
	C480.463593,158.442413 478.478027,156.430389 478.479126,155.227264 
	C478.480225,153.996643 480.549225,151.715714 481.740112,151.697830 
	C496.891846,151.470383 512.050537,151.456390 527.200867,151.741943 
	C528.857178,151.773163 530.950623,153.681885 532.020752,155.272018 
	C536.006958,161.195114 539.645874,167.351685 543.426697,173.413406 
	C544.376770,174.936569 545.370056,176.432739 547.059753,179.051346 
	C549.945862,174.481003 552.405334,170.698364 554.747925,166.844650 
	C556.992859,163.151474 559.204163,159.432220 561.268860,155.636612 
	C563.369263,151.775604 566.382568,150.758499 571.308777,152.441711 
	C569.691223,155.244278 568.193848,157.838608 566.495728,160.735855 
M528.917114,154.516647 
	C528.058899,154.516647 527.200623,154.516647 525.472229,154.516647 
	C529.585388,161.339935 532.874329,167.868713 537.168030,173.651413 
	C542.742798,181.159515 546.340271,188.920395 544.961853,198.500229 
	C544.757507,199.919937 545.564148,201.485092 545.903076,202.982971 
	C546.351135,202.948059 546.799194,202.913147 547.247253,202.878250 
	C547.532043,201.869614 548.193359,200.801117 548.044006,199.861496 
	C546.371643,189.340500 550.653748,180.831909 556.762085,172.810043 
	C558.651123,170.329254 560.045105,167.464722 561.601318,164.739136 
	C563.552612,161.321655 565.437622,157.866302 567.351196,154.427322 
	C566.989502,154.176193 566.627747,153.925079 566.265991,153.673965 
	C565.251282,154.799210 564.038086,155.801910 563.255005,157.070175 
	C559.087646,163.819672 555.128418,170.698959 550.897766,177.407593 
	C547.823486,182.282440 545.817139,182.085052 542.816162,177.078217 
	C538.394165,169.700455 533.902527,162.364380 528.917114,154.516647 
z"/>
<path fill="#E7E7E7" opacity="1.000000" stroke="none" 
	d="
M224.813934,261.582458 
	C229.733963,262.789764 234.280396,263.766541 238.756531,264.998688 
	C243.849884,266.400787 246.493042,270.202118 247.072571,275.160919 
	C247.660889,280.194916 245.596786,284.354309 241.072144,286.880066 
	C230.195633,292.951569 219.234299,291.195526 208.336044,286.895599 
	C205.151932,285.639282 206.486404,283.464417 207.669662,281.612000 
	C209.034058,279.476074 209.162491,275.974731 213.600800,277.456299 
	C218.250809,279.008545 223.175064,280.008789 228.053040,280.466980 
	C229.836899,280.634583 231.831985,278.553589 233.730698,277.498383 
	C231.947357,276.085754 230.361618,274.143921 228.333557,273.386627 
	C225.415039,272.296875 222.138855,272.212006 219.079086,271.444214 
	C211.830185,269.625153 207.373230,264.893799 207.246048,259.121643 
	C207.114120,253.133972 212.159454,247.163605 219.192673,245.499374 
	C226.817551,243.695129 234.400757,244.260574 241.859772,246.679016 
	C244.293686,247.468140 246.653519,248.379868 244.712692,251.460205 
	C243.198135,253.863968 243.570450,258.457733 238.052612,256.625763 
	C233.922897,255.254669 229.318771,255.069656 224.907761,254.930511 
	C223.508575,254.886383 222.051086,256.691132 220.620285,257.649811 
	C221.883286,258.921478 223.146286,260.193115 224.813934,261.582458 
z"/>
<path fill="#EAEAEA" opacity="1.000000" stroke="none" 
	d="
M202.195709,263.961365 
	C202.148621,265.372986 202.101532,266.784637 201.843323,268.756195 
	C201.102036,269.948395 200.571869,270.580658 200.041687,271.212952 
	C190.355759,271.146545 180.669815,271.080139 170.197052,271.015198 
	C169.626053,272.592712 169.269196,274.696625 170.153732,275.656372 
	C174.746262,280.639435 180.996140,281.258667 186.478867,278.656006 
	C190.974823,276.521820 193.619049,277.432953 196.614120,280.329010 
	C196.614120,280.329010 196.848373,280.179810 196.750183,280.653748 
	C195.830154,282.826569 195.463104,285.244568 194.108612,286.101135 
	C187.889130,290.034271 180.955139,290.202942 173.887131,288.968933 
	C162.810898,287.035126 155.341934,278.611542 155.119720,267.730225 
	C154.873169,255.656326 161.519836,247.280731 173.477280,244.597565 
	C184.247650,242.180771 195.551285,247.505341 199.705963,257.039124 
	C200.683472,259.282227 201.373474,261.650604 202.195709,263.961365 
M188.649002,259.341888 
	C185.197556,254.307251 180.614441,252.301010 175.521896,253.841263 
	C171.534622,255.047241 168.310303,257.090912 168.272614,262.966187 
	C174.759827,262.966187 181.006409,263.041412 187.244217,262.842133 
	C187.826218,262.823578 188.352722,261.067841 188.649002,259.341888 
z"/>
<path fill="#EBEBEB" opacity="1.000000" stroke="none" 
	d="
M483.969360,247.832016 
	C486.690796,247.856659 489.412231,247.881302 492.818115,248.131165 
	C507.727112,252.574692 510.499878,256.277802 510.411407,271.073242 
	C510.375641,277.057495 510.373688,283.046875 510.087067,289.021027 
	C510.021515,290.386810 508.875458,292.829773 508.172119,292.849701 
	C504.114502,292.964630 499.453278,294.795441 496.742828,289.864929 
	C488.341553,295.173553 480.167267,294.159943 471.938354,289.649689 
	C470.638611,286.843109 468.659485,284.489746 468.301331,281.911255 
	C467.223663,274.152466 472.742340,268.473053 482.027557,267.507751 
	C485.986938,267.096100 490.012085,267.299530 494.007690,267.258789 
	C497.761963,267.220520 498.845734,264.918854 496.517670,262.602509 
	C494.262085,260.358246 490.811798,258.250793 487.785736,258.099976 
	C483.497375,257.886322 479.116882,259.522003 474.486969,260.423584 
	C474.044739,259.786346 473.426300,258.807098 472.721313,257.894775 
	C469.968842,254.332794 470.621490,252.022079 475.087097,250.786194 
	C478.090363,249.955048 481.011505,248.827164 483.969360,247.832016 
M493.096558,274.900787 
	C490.291779,275.006073 487.373291,274.679901 484.724854,275.378174 
	C483.132080,275.798126 481.113892,277.659210 480.839203,279.157288 
	C480.569000,280.630981 481.841888,282.993652 483.168335,284.039856 
	C487.065582,287.113647 494.883301,284.875336 496.866089,280.339691 
	C498.128448,277.452118 498.047150,275.053680 493.096558,274.900787 
z"/>
<path fill="#D9D9D9" opacity="1.000000" stroke="none" 
	d="
M308.915527,160.866943 
	C315.413208,175.407349 321.761475,189.606812 328.097382,203.778641 
	C322.368408,206.545898 320.398346,205.839172 318.356628,200.833725 
	C317.728973,199.294998 317.028229,197.779785 316.506012,196.205688 
	C315.484619,193.126648 313.599335,191.746643 310.190338,191.859314 
	C303.712616,192.073410 297.220215,192.001114 290.738129,191.857803 
	C287.712311,191.790894 285.674896,192.566849 284.741791,195.750198 
	C284.047211,198.119858 282.795074,200.322311 281.848114,202.622665 
	C280.368988,206.215729 277.304230,205.403046 274.606903,205.005142 
	C274.193939,204.944214 273.531433,202.415619 273.955688,201.459106 
	C280.810791,186.003006 287.720184,170.568024 294.940125,155.280746 
	C295.771729,153.519913 298.466949,151.807434 300.417969,151.660110 
	C302.095276,151.533463 304.257812,153.389603 305.629578,154.894257 
	C307.038757,156.439957 307.749664,158.622284 308.915527,160.866943 
M294.623871,173.109436 
	C293.052582,176.824234 291.481293,180.539032 289.663757,184.835968 
	C297.270966,184.835968 303.806610,184.835968 311.587463,184.835968 
	C307.711426,176.527252 304.219696,169.042358 300.121216,160.256836 
	C297.903595,165.418793 296.403534,168.910507 294.623871,173.109436 
z"/>
<path fill="#EBEBEB" opacity="1.000000" stroke="none" 
	d="
M462.012146,293.069702 
	C453.315887,293.011688 444.619629,292.953735 435.120483,292.744873 
	C429.880493,292.393219 425.443390,292.192505 421.006256,291.991760 
	C421.006256,291.991760 421.000000,292.000000 421.085449,291.534729 
	C421.010498,284.346283 420.850098,277.623169 420.689667,270.900024 
	C420.826752,260.907471 420.963867,250.914886 421.250000,240.154297 
	C421.597992,237.590042 421.796936,235.793777 421.995850,233.997528 
	C425.366974,233.975510 428.738037,233.953476 432.819824,234.245605 
	C433.827209,236.320465 434.385864,238.082245 434.378540,239.841675 
	C434.327332,252.141861 434.270386,264.444366 433.962250,276.739807 
	C433.866455,280.562347 435.014618,282.193573 439.006531,282.119904 
	C445.650604,281.997284 452.301666,282.318939 458.950073,282.336609 
	C462.090393,282.344940 463.705719,283.613922 463.239136,286.847900 
	C462.937622,288.937347 462.428345,290.996796 462.012146,293.069702 
z"/>
<path fill="#EAEAEA" opacity="1.000000" stroke="none" 
	d="
M84.249023,114.987366 
	C84.352989,114.354286 84.456947,113.721207 84.909119,112.604385 
	C86.400696,108.319946 87.170624,104.354416 88.761116,100.751076 
	C92.698738,91.830200 96.866997,83.001617 101.276466,74.305237 
	C102.368355,72.151810 104.623260,69.132019 107.456421,71.751671 
	C108.504822,72.721062 108.019127,76.262352 107.181236,78.168282 
	C105.456543,82.091370 102.405640,85.486946 101.006790,89.486534 
	C97.815598,98.610786 95.290955,107.968163 92.495529,117.230827 
	C92.394913,117.923347 92.294296,118.615860 91.899811,119.914490 
	C91.230179,124.420776 90.854416,128.320938 90.478661,132.221115 
	C90.436790,139.440063 90.394920,146.658997 90.227859,154.743805 
	C90.784012,159.069443 91.465347,162.529205 92.146683,165.988983 
	C92.169907,166.398117 92.193138,166.807266 92.124794,167.917603 
	C92.320641,170.248993 92.431282,171.934799 92.923843,173.500458 
	C96.415489,184.599182 100.072174,195.646973 103.446236,206.780716 
	C104.018974,208.670624 104.051750,211.182617 103.213257,212.840286 
	C102.818764,213.620178 99.765953,213.055420 97.917763,213.100006 
	C97.917763,213.100006 97.992432,213.032303 98.007172,212.677979 
	C94.056496,200.179108 90.005379,188.061539 86.169144,175.876328 
	C84.697708,171.202499 83.716660,166.374268 82.512154,161.616394 
	C82.447456,160.652573 82.382767,159.688736 82.472504,158.027924 
	C82.490753,147.883163 82.354584,138.435394 82.218407,128.987610 
	C82.344978,127.404800 82.471550,125.821983 82.920494,123.657005 
	C83.578255,120.379013 83.913635,117.683189 84.249023,114.987366 
z"/>
<path fill="#D9D9D9" opacity="1.000000" stroke="none" 
	d="
M417.150146,198.808823 
	C417.165131,184.516998 417.176697,170.699753 417.198334,156.882523 
	C417.202515,154.203247 416.797211,151.538635 421.033722,151.466248 
	C425.492371,151.390076 425.227905,154.105453 425.218475,157.050873 
	C425.180603,168.870361 425.368896,180.694687 425.071350,192.507111 
	C424.957947,197.008087 426.508057,198.277313 430.811249,198.062714 
	C437.120972,197.748047 443.459076,198.024719 449.784912,198.000824 
	C452.407471,197.990906 454.333496,198.442856 454.256439,201.801178 
	C454.180298,205.118973 452.230255,205.541687 449.627563,205.529755 
	C440.804688,205.489288 431.970856,205.233139 423.162689,205.589844 
	C418.203674,205.790665 416.449554,203.969635 417.150146,198.808823 
z"/>
<path fill="#E7E7E7" opacity="1.000000" stroke="none" 
	d="
M255.019287,273.070374 
	C255.102829,264.948822 255.287704,257.314484 255.211319,249.682770 
	C255.180283,246.582382 256.005981,244.918137 259.417908,245.322754 
	C260.892273,245.497604 262.413513,245.503403 263.892853,245.365280 
	C267.502716,245.028214 268.413666,246.779922 268.326508,250.112915 
	C268.014191,262.056305 267.713654,274.006897 267.811920,285.951447 
	C267.868225,292.797150 263.075958,290.124146 259.830414,290.600372 
	C255.890350,291.178467 254.451813,289.416443 254.762863,285.500946 
	C255.077637,281.538483 254.949615,277.540863 255.019287,273.070374 
z"/>
<path fill="#676767" opacity="1.000000" stroke="none" 
	d="
M326.849548,271.019348 
	C326.423370,265.127930 326.446350,258.992859 326.057861,252.883942 
	C325.931885,250.903275 324.727722,247.330627 324.017242,247.330750 
	C320.667145,247.331284 316.083191,244.663467 314.399872,250.295517 
	C314.327423,250.537842 313.892090,250.671692 313.456757,250.973145 
	C307.827362,247.216232 301.685730,244.898071 294.735138,246.500580 
	C281.514069,249.548767 274.630280,261.377228 278.729034,273.812317 
	C282.616455,285.606140 296.065216,291.272888 308.172058,286.286682 
	C309.744537,285.639069 311.483124,285.394714 313.144775,284.963623 
	C313.072601,287.018097 313.780548,289.676147 312.759186,290.996185 
	C310.875488,293.430786 308.261658,296.015472 305.445160,296.873352 
	C298.270569,299.058746 291.339233,296.947601 284.981201,293.588318 
	C278.655121,300.011261 279.102386,302.382355 287.210297,305.045929 
	C295.293274,307.701324 303.599640,308.092255 311.827209,305.872314 
	C318.078217,304.185669 321.883484,299.656036 324.028320,293.680511 
	C324.644348,291.964233 325.115662,290.196075 325.943970,288.231262 
	C328.271118,293.249695 321.374451,304.287262 314.973938,306.643951 
	C303.752319,310.775879 292.728455,309.741608 282.018646,304.780426 
	C278.568390,303.182129 277.473175,300.658386 279.817322,297.107086 
	C281.848907,294.029327 282.707336,289.952576 288.225922,292.937469 
	C294.168640,296.151733 300.705261,297.660187 307.370575,294.379425 
	C310.262177,292.956146 311.966797,290.863708 311.750854,287.037720 
	C298.721619,291.754150 286.982971,291.362366 279.116028,278.667816 
	C273.738739,269.990753 275.489899,257.881348 282.272186,250.874710 
	C288.320435,244.626389 300.749695,241.565994 312.806274,248.079712 
	C315.829437,243.013519 320.791504,245.341904 325.124695,245.350449 
	C326.007843,245.352188 327.637360,247.615143 327.644012,248.842697 
	C327.683868,256.155975 327.348358,263.471252 326.849548,271.019348 
z"/>
<path fill="#D9D9D9" opacity="1.000000" stroke="none" 
	d="
M401.477905,194.905731 
	C401.473663,197.383804 401.382599,199.382706 401.486420,201.371460 
	C401.641052,204.332748 400.419952,205.517838 397.382751,205.494492 
	C394.248169,205.470383 393.384003,204.008423 393.398315,201.180832 
	C393.474762,186.057175 393.492981,170.933044 393.467346,155.809204 
	C393.462646,153.048553 394.195374,151.508438 397.386871,151.432098 
	C400.886566,151.348434 401.565613,153.067352 401.546783,156.030670 
	C401.465332,168.827423 401.491333,181.624847 401.477905,194.905731 
M399.044281,197.306564 
	C398.924011,183.194626 398.810181,169.082611 398.635559,154.971344 
	C398.632202,154.699158 397.912354,154.435837 397.524109,154.166534 
	C395.012085,158.014374 395.314972,200.178421 398.471466,203.332977 
	C398.703979,201.261475 398.873352,199.752747 399.044281,197.306564 
z"/>
<path fill="#B7B7B7" opacity="1.000000" stroke="none" 
	d="
M470.474243,167.008575 
	C470.465149,178.478378 470.403198,189.450134 470.480896,200.420914 
	C470.503601,203.624603 470.147156,205.883789 466.020325,205.863968 
	C461.940033,205.844376 462.013702,203.376572 462.019989,200.563263 
	C462.052612,185.934799 462.046906,171.306259 462.070740,156.677780 
	C462.075104,153.997894 461.730927,151.324753 465.934052,151.264404 
	C469.968048,151.206497 470.672577,153.212296 470.523987,156.537567 
	C470.375702,159.855881 470.480682,163.185501 470.474243,167.008575 
M463.762421,166.512512 
	C463.771973,177.654663 463.709625,188.797989 463.892639,199.937302 
	C463.912872,201.170044 465.334625,202.379761 466.106384,203.600143 
	C466.782135,202.629623 468.037964,201.664261 468.046600,200.687836 
	C468.176178,186.054581 468.179016,171.419571 468.057312,156.786255 
	C468.049500,155.842438 466.781799,154.909073 466.100128,153.970871 
	C465.332306,154.993576 464.029755,155.953812 463.901550,157.051239 
	C463.575592,159.841507 463.775116,162.693130 463.762421,166.512512 
z"/>
<path fill="#3B3B3B" opacity="1.000000" stroke="none" 
	d="
M202.470093,263.718445 
	C201.373474,261.650604 200.683472,259.282227 199.705963,257.039124 
	C195.551285,247.505341 184.247650,242.180771 173.477280,244.597565 
	C161.519836,247.280731 154.873169,255.656326 155.119720,267.730225 
	C155.341934,278.611542 162.810898,287.035126 173.887131,288.968933 
	C180.955139,290.202942 187.889130,290.034271 194.108612,286.101135 
	C195.463104,285.244568 195.830154,282.826569 196.649612,280.749512 
	C199.809219,282.201660 199.931107,284.289581 196.552078,286.744232 
	C190.822220,290.906616 184.257004,292.419250 177.238129,291.782562 
	C158.058899,290.042694 147.865753,272.917725 155.945221,255.385880 
	C160.278946,245.982056 168.669601,242.183578 178.661331,242.219101 
	C188.514862,242.254120 196.374634,246.315842 200.820602,255.465698 
	C201.992645,257.877747 202.131287,260.791931 202.470093,263.718445 
z"/>
<path fill="#E2E2E2" opacity="1.000000" stroke="none" 
	d="
M255.454041,227.412354 
	C261.634399,222.983109 268.597961,224.399826 269.708466,230.072189 
	C270.397644,233.592575 269.649475,237.365845 266.057434,238.321899 
	C263.111267,239.106079 259.058838,238.818069 256.520844,237.296844 
	C253.094925,235.243423 252.823975,231.302139 255.454041,227.412354 
z"/>
<path fill="#404040" opacity="1.000000" stroke="none" 
	d="
M471.983398,290.356567 
	C480.167267,294.159943 488.341553,295.173553 496.742828,289.864929 
	C499.453278,294.795441 504.114502,292.964630 508.172119,292.849701 
	C508.875458,292.829773 510.021515,290.386810 510.087067,289.021027 
	C510.373688,283.046875 510.375641,277.057495 510.411407,271.073242 
	C510.499878,256.277802 507.727112,252.574692 493.268005,248.073853 
	C501.112274,245.639359 511.307770,253.360825 511.858459,262.801270 
	C512.408325,272.227722 512.125244,281.712616 511.884888,291.163696 
	C511.852325,292.443695 509.962402,294.723541 508.900146,294.742645 
	C505.029877,294.812164 501.153229,293.942993 497.264282,293.781921 
	C495.076080,293.691315 492.724915,293.920227 490.679474,294.653381 
	C483.554199,297.207153 477.441010,295.648651 471.983398,290.356567 
z"/>
<path fill="#404040" opacity="1.000000" stroke="none" 
	d="
M483.725159,247.542603 
	C481.011505,248.827164 478.090363,249.955048 475.087097,250.786194 
	C470.621490,252.022079 469.968842,254.332794 472.721313,257.894775 
	C473.426300,258.807098 474.044739,259.786346 474.486969,260.423584 
	C479.116882,259.522003 483.497375,257.886322 487.785736,258.099976 
	C490.811798,258.250793 494.262085,260.358246 496.517670,262.602509 
	C498.845734,264.918854 497.761963,267.220520 494.007690,267.258789 
	C490.012085,267.299530 485.986938,267.096100 482.027557,267.507751 
	C472.742340,268.473053 467.223663,274.152466 468.301331,281.911255 
	C468.659485,284.489746 470.638611,286.843109 471.938354,289.649689 
	C465.982941,289.089508 466.352203,284.032593 466.200928,280.039581 
	C465.950378,273.427460 471.582397,267.522125 478.968079,266.243256 
	C484.106750,265.353485 489.352264,265.080902 494.616394,264.525604 
	C492.332733,259.522949 485.913757,258.140991 479.172729,261.391602 
	C475.801270,263.017395 473.426483,263.291534 471.366272,259.514038 
	C467.660828,252.719910 467.970245,251.400009 475.368225,248.865982 
	C477.953308,247.980499 480.770020,247.771255 483.725159,247.542603 
z"/>
<path fill="#616161" opacity="1.000000" stroke="none" 
	d="
M92.815224,117.092880 
	C95.290955,107.968163 97.815598,98.610786 101.006790,89.486534 
	C102.405640,85.486946 105.456543,82.091370 107.181236,78.168282 
	C108.019127,76.262352 108.504822,72.721062 107.456421,71.751671 
	C104.623260,69.132019 102.368355,72.151810 101.276466,74.305237 
	C96.866997,83.001617 92.698738,91.830200 88.761116,100.751076 
	C87.170624,104.354416 86.400696,108.319946 84.942131,112.285187 
	C86.394440,105.672424 87.578575,98.669113 90.092148,92.180840 
	C92.649010,85.580849 96.335968,79.384956 99.883011,73.216209 
	C101.705719,70.046295 104.674599,67.491592 108.514030,70.109497 
	C112.385918,72.749542 110.771912,76.073410 108.681778,79.210403 
	C101.731758,89.641350 97.102524,101.032349 94.647301,113.326164 
	C94.395660,114.586182 93.650879,115.747704 92.815224,117.092880 
z"/>
<path fill="#404040" opacity="1.000000" stroke="none" 
	d="
M462.236237,293.324219 
	C462.428345,290.996796 462.937622,288.937347 463.239136,286.847900 
	C463.705719,283.613922 462.090393,282.344940 458.950073,282.336609 
	C452.301666,282.318939 445.650604,281.997284 439.006531,282.119904 
	C435.014618,282.193573 433.866455,280.562347 433.962250,276.739807 
	C434.270386,264.444366 434.327332,252.141861 434.378540,239.841675 
	C434.385864,238.082245 433.827209,236.320465 433.277344,234.198975 
	C437.313507,232.960556 435.906891,236.378555 435.921204,238.103561 
	C436.021851,250.262436 436.091736,262.427704 435.774811,274.580597 
	C435.661896,278.911774 436.783264,280.528778 441.309662,280.259583 
	C447.450134,279.894440 453.643311,279.985657 459.785675,280.353149 
	C461.547852,280.458588 464.747589,282.370331 464.657745,283.151245 
	C464.256134,286.642181 467.502838,291.112579 462.236237,293.324219 
z"/>
<path fill="#616161" opacity="1.000000" stroke="none" 
	d="
M97.893265,213.471603 
	C99.765953,213.055420 102.818764,213.620178 103.213257,212.840286 
	C104.051750,211.182617 104.018974,208.670624 103.446236,206.780716 
	C100.072174,195.646973 96.415489,184.599182 92.923843,173.500458 
	C92.431282,171.934799 92.320641,170.248993 92.189453,168.218475 
	C93.597450,171.448700 94.876266,175.070190 96.095787,178.711548 
	C99.388397,188.542862 102.868896,198.320938 105.750710,208.271927 
	C106.317162,210.227951 105.007858,213.247208 103.598068,214.999084 
	C103.035606,215.698029 99.856636,214.291351 97.893265,213.471603 
z"/>
<path fill="#616161" opacity="1.000000" stroke="none" 
	d="
M82.303772,162.033508 
	C83.716660,166.374268 84.697708,171.202499 86.169144,175.876328 
	C90.005379,188.061539 94.056496,200.179108 97.961937,212.699951 
	C96.087578,209.584778 93.713676,206.267548 92.562134,202.569672 
	C88.884140,190.758698 85.626175,178.815796 82.305550,166.896118 
	C81.917427,165.502899 82.150375,163.936646 82.303772,162.033508 
z"/>
<path fill="#3B3B3B" opacity="1.000000" stroke="none" 
	d="
M196.729584,279.979797 
	C193.619049,277.432953 190.974823,276.521820 186.478867,278.656006 
	C180.996140,281.258667 174.746262,280.639435 170.153732,275.656372 
	C169.269196,274.696625 169.626053,272.592712 169.745453,271.126343 
	C172.944260,278.060211 179.829651,280.212097 187.105865,276.556915 
	C193.073822,273.558929 193.406693,273.664001 196.729584,279.979797 
z"/>
<path fill="#616161" opacity="1.000000" stroke="none" 
	d="
M81.953674,129.276001 
	C82.354584,138.435394 82.490753,147.883163 82.424805,157.668671 
	C78.984596,148.583160 80.043488,139.079269 81.953674,129.276001 
z"/>
<path fill="#404040" opacity="1.000000" stroke="none" 
	d="
M420.329376,271.034851 
	C420.850098,277.623169 421.010498,284.346283 421.089386,291.531952 
	C420.417999,291.537140 419.307678,291.069366 419.316559,290.623962 
	C419.446167,284.137451 419.725494,277.653900 420.329376,271.034851 
z"/>
<path fill="#616161" opacity="1.000000" stroke="none" 
	d="
M90.780441,132.043854 
	C90.854416,128.320938 91.230179,124.420776 91.892212,120.264755 
	C91.813072,123.961464 91.447647,127.914017 90.780441,132.043854 
z"/>
<path fill="#404040" opacity="1.000000" stroke="none" 
	d="
M421.020630,292.400208 
	C425.443390,292.192505 429.880493,292.393219 434.656128,292.815979 
	C430.341431,292.961578 425.688202,292.885132 421.020630,292.400208 
z"/>
<path fill="#616161" opacity="1.000000" stroke="none" 
	d="
M92.400238,165.703690 
	C91.465347,162.529205 90.784012,159.069443 90.279343,155.195602 
	C91.188614,158.327164 91.921204,161.872772 92.400238,165.703690 
z"/>
<path fill="#616161" opacity="1.000000" stroke="none" 
	d="
M83.954361,115.235321 
	C83.913635,117.683189 83.578255,120.379013 82.944313,123.263306 
	C82.983742,120.795609 83.321724,118.139442 83.954361,115.235321 
z"/>
<path fill="#404040" opacity="1.000000" stroke="none" 
	d="
M421.619141,233.987823 
	C421.796936,235.793777 421.597992,237.590042 421.177612,239.690048 
	C421.051605,237.988586 421.147003,235.983353 421.619141,233.987823 
z"/>
<path fill="#3B3B3B" opacity="1.000000" stroke="none" 
	d="
M200.225342,271.465637 
	C200.571869,270.580658 201.102036,269.948395 201.910675,269.175720 
	C203.413147,271.135406 202.905548,272.086670 200.225342,271.465637 
z"/>
<path fill="#0D0D0D" opacity="1.000000" stroke="none" 
	d="
M134.013428,264.724884 
	C131.514023,272.634491 126.905540,276.369720 119.108093,277.085266 
	C103.201614,278.544922 103.195160,278.544830 103.392487,262.863708 
	C103.461639,257.368073 103.830292,251.861069 103.579361,246.381378 
	C103.382317,242.078506 105.077286,240.753311 109.111046,241.208405 
	C111.580307,241.486984 114.103455,241.254425 116.600021,241.330185 
	C129.802780,241.730835 137.155685,251.388519 134.013428,264.724884 
z"/>
<path fill="#141414" opacity="1.000000" stroke="none" 
	d="
M557.238403,267.092834 
	C559.476562,278.571411 553.440308,285.879486 543.976501,283.653809 
	C538.576355,282.383820 535.026794,277.448944 535.176331,271.419159 
	C535.319031,265.665222 539.044067,260.736694 544.078186,259.641296 
	C550.102112,258.330536 554.463684,260.685608 557.238403,267.092834 
z"/>
<path fill="#FDFDFD" opacity="1.000000" stroke="none" 
	d="
M185.055649,125.888741 
	C182.220993,121.271858 174.207565,118.665283 168.370148,120.622192 
	C161.167358,123.036819 156.590515,127.806862 155.519104,135.551773 
	C154.562271,142.468369 156.475815,148.329239 161.852539,152.940796 
	C163.322876,154.201874 164.755722,155.506683 166.431793,156.991653 
	C158.048767,166.833969 150.008286,176.290741 141.947418,185.730057 
	C138.711060,189.519836 135.253952,193.135330 132.210861,197.072479 
	C127.787926,202.794846 123.651314,204.675171 120.341759,202.003693 
	C116.631470,199.008743 116.920586,193.103592 121.085945,188.228516 
	C131.126480,176.477234 141.310303,164.844879 151.139267,152.919708 
	C152.826569,150.872528 153.547226,147.670151 153.838165,144.909073 
	C154.359055,139.965714 154.417694,134.945038 154.244766,129.971451 
	C154.176971,128.021179 153.426987,125.729233 152.198944,124.245865 
	C145.735565,116.438675 138.889679,108.946785 132.476196,101.100533 
	C130.693146,98.919159 129.149200,95.960381 128.949432,93.251060 
	C128.789764,91.085533 130.321350,87.539963 132.035858,86.815102 
	C134.095154,85.944489 137.911926,86.542191 139.615280,88.041061 
	C144.070435,91.961388 147.883606,96.637383 151.775345,101.164597 
	C155.782593,105.826210 159.558533,110.686058 163.489273,115.414627 
	C164.216003,116.288864 165.078003,117.220840 166.081680,117.665985 
	C171.165283,119.920639 181.417404,117.585648 185.125610,113.193832 
	C190.577179,106.737274 195.756790,100.050774 201.223190,93.607224 
	C203.925568,90.421806 206.083466,86.607361 211.464294,86.765228 
	C214.951492,86.867531 217.754349,87.822876 218.578583,90.819107 
	C219.178833,93.001106 218.622742,96.350433 217.225128,98.087471 
	C210.783997,106.092880 203.873337,113.720932 197.117523,121.472527 
	C194.228790,124.787056 191.199936,127.444069 192.950775,133.095642 
	C194.202835,137.137207 192.349045,142.070877 192.333069,146.608093 
	C192.326187,148.558472 192.955734,150.929962 194.161697,152.400085 
	C204.688690,165.232864 215.446426,177.875992 226.054840,190.642578 
	C229.080460,194.283722 228.748947,199.623993 225.614532,202.142166 
	C222.648331,204.525192 217.711945,203.444046 214.641983,199.690872 
	C204.131348,186.841156 193.666748,173.953537 183.094193,161.155045 
	C181.777939,159.561661 179.919144,158.416458 178.008774,156.808563 
	C185.069794,153.431671 190.410843,148.660583 190.610016,139.713150 
	C190.285843,138.937302 190.332214,138.716660 190.686981,138.119415 
	C190.826233,133.448212 190.539642,129.266556 185.846802,126.845062 
	C185.425842,126.455460 185.240753,126.172104 185.055649,125.888741 
z"/>
<path fill="#0A0A0A" opacity="1.000000" stroke="none" 
	d="
M190.470367,138.515320 
	C190.332214,138.716660 190.285843,138.937302 190.399872,139.335434 
	C189.942474,140.667297 189.310806,141.805847 188.907227,143.020203 
	C185.869995,152.159241 176.399155,157.095474 167.889236,153.933945 
	C159.025833,150.641113 154.920792,140.598236 158.797546,131.691269 
	C162.568771,123.026733 172.139618,119.596893 180.927032,123.803444 
	C182.119919,124.374489 183.200653,125.179787 184.694489,125.882675 
	C185.240753,126.172104 185.425842,126.455460 185.838409,127.212830 
	C187.534042,131.296326 189.002197,134.905823 190.470367,138.515320 
z"/>
<path fill="#141414" opacity="1.000000" stroke="none" 
	d="
M300.345703,256.027008 
	C310.526855,256.573944 315.278076,261.575378 313.579224,269.476074 
	C312.364655,275.124725 307.706421,278.478607 301.411865,278.236511 
	C295.630035,278.014099 291.295227,274.483215 290.442413,269.301392 
	C289.398438,262.958008 291.882385,258.795929 298.026062,256.620758 
	C298.648804,256.400269 299.298798,256.256561 300.345703,256.027008 
z"/>
<path fill="#141414" opacity="1.000000" stroke="none" 
	d="
M344.209503,186.297241 
	C343.769775,182.117416 345.440063,180.825546 349.105957,181.058136 
	C353.240356,181.320435 357.408081,181.012939 361.552948,181.171936 
	C363.683868,181.253662 365.847382,181.626358 367.906586,182.193008 
	C371.761688,183.253845 374.291016,185.497635 374.315704,189.918671 
	C374.342468,194.712799 371.195984,197.238678 367.344452,197.680328 
	C360.457153,198.470093 353.449493,198.317688 346.494720,198.258560 
	C345.728882,198.252045 344.456421,196.343643 344.326324,195.212921 
	C344.005707,192.426666 344.213196,189.579636 344.209503,186.297241 
z"/>
<path fill="#141414" opacity="1.000000" stroke="none" 
	d="
M344.237732,163.248138 
	C343.841614,159.261108 345.082031,157.498367 348.955505,157.815369 
	C354.071899,158.234070 359.239166,158.099518 364.338287,158.639816 
	C368.697540,159.101746 371.274353,161.957840 371.331726,166.349380 
	C371.393127,171.049866 368.458221,173.938583 364.051300,174.383728 
	C358.456238,174.948898 352.774292,174.857315 347.142731,174.666428 
	C346.149292,174.632751 344.581787,172.830536 344.390167,171.662750 
	C343.965302,169.073395 344.245605,166.368347 344.237732,163.248138 
z"/>
<path fill="#FDFDFD" opacity="1.000000" stroke="none" 
	d="
M529.178833,154.763596 
	C533.902527,162.364380 538.394165,169.700455 542.816162,177.078217 
	C545.817139,182.085052 547.823486,182.282440 550.897766,177.407593 
	C555.128418,170.698959 559.087646,163.819672 563.255005,157.070175 
	C564.038086,155.801910 565.251282,154.799210 566.265991,153.673965 
	C566.627747,153.925079 566.989502,154.176193 567.351196,154.427322 
	C565.437622,157.866302 563.552612,161.321655 561.601318,164.739136 
	C560.045105,167.464722 558.651123,170.329254 556.762085,172.810043 
	C550.653748,180.831909 546.371643,189.340500 548.044006,199.861496 
	C548.193359,200.801117 547.532043,201.869614 547.247253,202.878250 
	C546.799194,202.913147 546.351135,202.948059 545.903076,202.982971 
	C545.564148,201.485092 544.757507,199.919937 544.961853,198.500229 
	C546.340271,188.920395 542.742798,181.159515 537.168030,173.651413 
	C532.874329,167.868713 529.585388,161.339935 525.472229,154.516647 
	C527.200623,154.516647 528.058899,154.516647 529.178833,154.763596 
z"/>
<path fill="#262626" opacity="1.000000" stroke="none" 
	d="
M188.777008,259.730286 
	C188.352722,261.067841 187.826218,262.823578 187.244217,262.842133 
	C181.006409,263.041412 174.759827,262.966187 168.272614,262.966187 
	C168.310303,257.090912 171.534622,255.047241 175.521896,253.841263 
	C180.614441,252.301010 185.197556,254.307251 188.777008,259.730286 
z"/>
<path fill="#262626" opacity="1.000000" stroke="none" 
	d="
M493.528809,274.911987 
	C498.047150,275.053680 498.128448,277.452118 496.866089,280.339691 
	C494.883301,284.875336 487.065582,287.113647 483.168335,284.039856 
	C481.841888,282.993652 480.569000,280.630981 480.839203,279.157288 
	C481.113892,277.659210 483.132080,275.798126 484.724854,275.378174 
	C487.373291,274.679901 490.291779,275.006073 493.528809,274.911987 
z"/>
<path fill="#1B1B1B" opacity="1.000000" stroke="none" 
	d="
M294.763672,172.755829 
	C296.403534,168.910507 297.903595,165.418793 300.121216,160.256836 
	C304.219696,169.042358 307.711426,176.527252 311.587463,184.835968 
	C303.806610,184.835968 297.270966,184.835968 289.663757,184.835968 
	C291.481293,180.539032 293.052582,176.824234 294.763672,172.755829 
z"/>
<path fill="#FDFDFD" opacity="1.000000" stroke="none" 
	d="
M399.043488,197.775299 
	C398.873352,199.752747 398.703979,201.261475 398.471466,203.332977 
	C395.314972,200.178421 395.012085,158.014374 397.524109,154.166534 
	C397.912354,154.435837 398.632202,154.699158 398.635559,154.971344 
	C398.810181,169.082611 398.924011,183.194626 399.043488,197.775299 
z"/>
<path fill="#FDFDFD" opacity="1.000000" stroke="none" 
	d="
M463.763367,166.016357 
	C463.775116,162.693130 463.575592,159.841507 463.901550,157.051239 
	C464.029755,155.953812 465.332306,154.993576 466.100159,153.970856 
	C466.781799,154.909073 468.049500,155.842438 468.057312,156.786255 
	C468.179016,171.419571 468.176178,186.054581 468.046600,200.687836 
	C468.037964,201.664261 466.782135,202.629623 466.106384,203.600143 
	C465.334625,202.379761 463.912872,201.170044 463.892639,199.937302 
	C463.709625,188.797989 463.771973,177.654663 463.763367,166.016357 
z"/>
<path fill="#B7B7B7" opacity="1.000000" stroke="none" 
	d="
M190.686981,138.119415 
	C189.002197,134.905823 187.534042,131.296326 186.074265,127.319077 
	C190.539642,129.266556 190.826233,133.448212 190.686981,138.119415 
z"/>
</svg>